<?xml version="1.0" encoding="UTF-8" standalone="no"?>
<!DOCTYPE svg PUBLIC "-//W3C//DTD SVG 1.1//EN" "http://www.w3.org/Graphics/SVG/1.1/DTD/svg11.dtd">
<svg width="100%" height="100%" viewBox="0 0 500 500" version="1.1" xmlns="http://www.w3.org/2000/svg" xmlns:xlink="http://www.w3.org/1999/xlink" xml:space="preserve" xmlns:serif="http://www.serif.com/" style="fill-rule:evenodd;clip-rule:evenodd;stroke-linejoin:round;stroke-miterlimit:1.41421;">
    <g id="Boy2" transform="matrix(2.12089,0,0,2.12089,-157.685,-116.18)">
        <path d="M304.741,172.654C304.741,110.554 254.323,60.137 192.224,60.137C130.124,60.137 79.707,110.554 79.707,172.654C79.707,234.754 130.124,285.171 192.224,285.171C254.323,285.171 304.741,234.754 304.741,172.654Z" style="fill:rgb(101,113,129);fill-opacity:0;"/>
        <clipPath id="_clip1">
            <path d="M304.741,172.654C304.741,110.554 254.323,60.137 192.224,60.137C130.124,60.137 79.707,110.554 79.707,172.654C79.707,234.754 130.124,285.171 192.224,285.171C254.323,285.171 304.741,234.754 304.741,172.654Z"/>
        </clipPath>
        <g clip-path="url(#_clip1)">
            <path id="CircleBackground" d="M304.741,172.654C304.741,110.554 254.323,60.137 192.224,60.137C130.124,60.137 79.707,110.554 79.707,172.654C79.707,234.754 130.124,285.171 192.224,285.171C254.323,285.171 304.741,234.754 304.741,172.654Z" style="fill:rgb(101,113,129);"/>
            <g id="Avatar" transform="matrix(0.750114,0,0,0.750114,-278.766,-32.5792)">
                <g transform="matrix(0.73724,0,0,1.84194,-188.471,-1469.59)">
                    <rect x="1091.41" y="976.271" width="34.75" height="33.84" style="fill:rgb(242,198,153);"/>
                </g>
                <g transform="matrix(0.73724,0,0,0.970338,-188.471,-589.178)">
                    <path d="M1126.16,984.402L1091.41,967.375L1091.41,1010.11L1126.16,1010.11L1126.16,984.402Z" style="fill:rgb(255,213,170);"/>
                </g>
                <g transform="matrix(0.891367,-0.197499,0.21194,0.952594,-618.321,-666.983)">
                    <path d="M1034.64,1178.84C1045.3,1184.19 1047.84,1190.31 1047.71,1203.72C1047.58,1217.53 1044.66,1222.57 1035.05,1224.81C1027,1226.69 1008.19,1219.15 1007.04,1201.46C1005.77,1181.84 1023.8,1173.39 1034.64,1178.84Z" style="fill:rgb(253,196,155);"/>
                </g>
                <g transform="matrix(-0.885427,-0.196182,-0.21194,0.952594,1868.12,-668.362)">
                    <path d="M1034.64,1178.84C1045.3,1184.19 1047.84,1190.31 1047.71,1203.72C1047.58,1217.53 1044.66,1222.57 1035.05,1224.81C1027,1226.69 1008.19,1219.15 1007.04,1201.46C1005.77,1181.84 1023.8,1173.39 1034.64,1178.84Z" style="fill:rgb(253,196,155);"/>
                </g>
                <g transform="matrix(1.17965,0,0,1.27613,-685.524,-922.332)">
                    <path d="M1113.09,858.134C1131.49,858.134 1161.25,864.374 1172.81,881.145C1183.2,896.215 1176.35,920.961 1176.33,937.496C1176.27,972.562 1147.92,987.887 1113.09,987.644C1078.15,987.401 1049.75,972.269 1049.75,937.331C1049.75,922.225 1045.1,902.35 1053.95,888.09C1065.58,869.368 1093.26,858.134 1113.09,858.134Z" style="fill:rgb(255,213,170);"/>
                </g>
                <g transform="matrix(1.21452,0,0,1.23252,-1005,-1222.74)">
                    <g transform="matrix(1.17625,0,0,1.15907,1156.64,1045.43)">
                        <path d="M160.324,218.557L176.155,212.117C176.155,212.117 199.925,213.615 203.195,241.349C203.772,246.238 205.126,258.695 198.546,262.378C180.567,272.441 137.719,277.71 121.024,269.948C114.98,267.138 115.47,246.185 116.04,241.349C119.311,213.615 143.081,212.117 143.081,212.117L160.324,218.557Z" style="fill:rgb(47,103,85);"/>
                        <clipPath id="_clip2">
                            <path d="M160.324,218.557L176.155,212.117C176.155,212.117 199.925,213.615 203.195,241.349C203.772,246.238 205.126,258.695 198.546,262.378C180.567,272.441 137.719,277.71 121.024,269.948C114.98,267.138 115.47,246.185 116.04,241.349C119.311,213.615 143.081,212.117 143.081,212.117L160.324,218.557Z"/>
                        </clipPath>
                        <g clip-path="url(#_clip2)">
                            <path d="M142.886,212.515C142.886,212.515 153.847,217.359 156.512,220.532C163.079,228.35 153.218,262.04 158.886,268.257C195.161,308.052 247.836,251.426 213.191,231.875C206.207,224.041 200.428,215.973 178.755,210.999L142.886,212.515Z" style="fill:rgb(41,89,73);"/>
                        </g>
                    </g>
                    <g transform="matrix(1.2066,0,0,1.18553,1111.51,1006.65)">
                        <path d="M184.986,231.767L193.856,246.54L175.523,240.547C177.642,237.136 180.871,234.243 184.986,231.767Z" style="fill:rgb(47,103,85);"/>
                    </g>
                    <g transform="matrix(-1.2066,0,0,1.18553,1579.04,1006.65)">
                        <path d="M184.986,231.767L193.856,246.54L175.523,240.547C178.157,237.428 181.202,234.461 184.986,231.767Z" style="fill:rgb(47,103,85);"/>
                    </g>
                    <g transform="matrix(1.11378,0,0,1.09752,1124.92,1034.01)">
                        <circle cx="197.947" cy="245.728" r="1.985" style="fill:rgb(190,217,223);"/>
                    </g>
                    <g transform="matrix(1.11378,0,0,1.09752,1124.92,1045.05)">
                        <circle cx="197.947" cy="245.728" r="1.985" style="fill:rgb(190,217,223);"/>
                    </g>
                    <g transform="matrix(1.11378,0,0,1.09752,1124.92,1056.08)">
                        <circle cx="197.947" cy="245.728" r="1.985" style="fill:rgb(190,217,223);"/>
                    </g>
                </g>
                <g transform="matrix(1.82941,0,0,1.65098,-1086.02,-430.837)">
                    <path d="M971.7,386.095C972.261,407.983 972.528,434.942 974.962,443.377C985.582,416.701 988.198,379.857 972.173,375.206C957.315,351.233 900.773,358.673 889.571,385.975C884.784,397.639 893.783,440.592 898.991,443.595L899.572,390.773C956.214,395.513 960.552,390.146 971.7,386.095Z" style="fill:rgb(200,127,78);"/>
                </g>
                <g transform="matrix(0.974404,0,0,1,-349.038,631.96)">
                    <path d="M1001.39,-340.084C1001.72,-340.087 1002.05,-340.084 1002.38,-340.077C1003.47,-340.103 1004.54,-340.072 1005.62,-339.974C1008.47,-339.713 1010.46,-339.275 1011.76,-338.719C1027.08,-335.07 1039.48,-330.835 1055.94,-339.446C1069.67,-346.628 1066.71,-367.984 1065.33,-379.38C1062.72,-401.065 1050.91,-449.668 1050.91,-449.668C1050.91,-449.668 1080.06,-447.737 1089.84,-420.707C1094.25,-408.531 1088.92,-379.899 1085.75,-362.491C1079.46,-327.908 1067.77,-281.877 1001.5,-281.877C935.229,-281.877 923.311,-327.908 917.023,-362.491C913.858,-379.899 908.523,-408.531 912.931,-420.707C922.717,-447.737 951.863,-449.668 951.863,-449.668C951.863,-449.668 940.057,-401.065 937.441,-379.38C936.066,-367.984 933.105,-346.628 946.835,-339.446C963.295,-330.835 975.696,-335.07 991.014,-338.719C992.319,-339.275 994.3,-339.713 997.158,-339.974C998.23,-340.072 999.31,-340.103 1000.39,-340.077C1000.73,-340.084 1001.06,-340.087 1001.39,-340.084ZM1001.39,-316.201C1001.74,-316.213 1002.07,-316.22 1002.38,-316.22C1007.58,-316.22 1017.85,-314.065 1017.97,-321.846C1018.05,-327.093 1009.67,-329.61 1001.58,-329.379L1001.58,-329.367L1001.39,-329.373L1001.2,-329.367L1001.2,-329.379C993.107,-329.61 984.725,-327.093 984.807,-321.846C984.928,-314.065 995.199,-316.22 1000.39,-316.22C1000.71,-316.22 1001.04,-316.213 1001.39,-316.201Z" style="fill:rgb(200,127,78);"/>
                </g>
                <g transform="matrix(1,0,0,1,0,-6.04009)">
                    <path d="M683.526,191.981L683.737,191.986L683.894,191.99L684.077,191.996L684.289,192.004L684.529,192.014L684.797,192.027L685.09,192.042L685.409,192.059L685.753,192.08L686.121,192.103L686.513,192.13L686.927,192.16L687.361,192.193L687.589,192.211L687.82,192.23L688.056,192.25L688.298,192.271L688.544,192.294L688.795,192.317L689.05,192.341L689.311,192.366L689.575,192.393L689.845,192.42L690.118,192.449L690.396,192.479L690.678,192.51L690.964,192.542L691.254,192.576L691.547,192.611L691.845,192.647L692.146,192.685L692.451,192.724L692.759,192.764L693.071,192.805L693.386,192.848L693.704,192.893L694.025,192.939L694.349,192.986L694.676,193.035L695.006,193.086L695.339,193.138L695.674,193.191L696.012,193.247L696.352,193.303L696.694,193.362L697.039,193.422L697.386,193.484L697.735,193.547L698.086,193.612L698.439,193.679L698.793,193.748L699.149,193.819L699.507,193.891L699.866,193.966L700.227,194.042L700.588,194.12L700.951,194.2L701.315,194.282L701.68,194.366L702.046,194.451L702.413,194.539L702.78,194.629L703.148,194.721L703.516,194.815L703.701,194.863L703.886,194.911L704.07,194.96L704.255,195.009L704.439,195.059L704.624,195.11L704.809,195.161L704.994,195.212L705.178,195.264L705.363,195.317L705.548,195.37L705.732,195.424L705.917,195.478L706.102,195.533L706.286,195.589L706.47,195.645L706.655,195.701L706.839,195.758L707.023,195.816L707.207,195.874L707.391,195.933L707.574,195.993L707.758,196.053L707.941,196.113L708.124,196.175L708.307,196.236L708.489,196.299L708.672,196.362L708.854,196.425L709.036,196.49L709.217,196.554L709.399,196.62L709.58,196.686L709.76,196.752L709.941,196.82L710.121,196.888L710.3,196.956L710.48,197.025L710.659,197.095L710.837,197.165L711.015,197.236L711.193,197.308L711.37,197.38L711.547,197.453L711.723,197.527L711.899,197.601L712.075,197.676L712.25,197.751L712.424,197.827L712.598,197.904L712.771,197.981L712.944,198.059L713.117,198.138L713.288,198.217L713.459,198.297L713.63,198.378L713.8,198.46L713.969,198.542L714.138,198.624L714.306,198.708L714.473,198.792L714.64,198.876L714.806,198.962L714.971,199.048L715.136,199.135L715.299,199.222L715.463,199.31L715.625,199.399L715.786,199.488L715.947,199.578L716.107,199.669L716.266,199.761L716.425,199.853L716.582,199.946L716.739,200.04L716.895,200.134L717.05,200.229L717.204,200.324L717.357,200.421L717.509,200.518L717.66,200.616L717.81,200.714L717.96,200.813L718.108,200.913L718.256,201.014L718.402,201.115L718.547,201.217L718.692,201.319L718.835,201.423L718.977,201.527L718.815,201.458L718.652,201.39L718.489,201.323L718.325,201.258L718.16,201.193L717.995,201.129L717.83,201.067L717.663,201.005L717.496,200.944L717.329,200.884L717.161,200.825L716.993,200.767L716.824,200.71L716.654,200.654L716.484,200.599L716.314,200.545L716.143,200.491L715.971,200.439L715.799,200.387L715.627,200.336L715.454,200.287L715.281,200.238L715.107,200.189L714.933,200.142L714.758,200.096L714.583,200.05L714.408,200.006L714.232,199.962L714.056,199.919L713.88,199.876L713.703,199.835L713.526,199.794L713.348,199.754L713.17,199.715L712.992,199.677L712.814,199.639L712.635,199.603L712.456,199.567L712.276,199.532L712.097,199.497L711.917,199.463L711.737,199.43L711.556,199.398L711.376,199.367L711.195,199.336L711.014,199.306L710.833,199.276L710.651,199.248L710.47,199.22L710.288,199.192L710.106,199.166L709.924,199.14L709.741,199.115L709.559,199.09L709.376,199.066L709.194,199.043L709.011,199.021L708.828,198.999L708.645,198.977L708.462,198.957L708.279,198.937L708.096,198.917L707.912,198.898L707.729,198.88L707.546,198.863L707.362,198.846L707.179,198.829L706.996,198.813L706.812,198.798L706.629,198.784L706.446,198.77L706.263,198.756L706.079,198.743L705.896,198.731L705.713,198.719L705.53,198.708L705.347,198.697L705.164,198.687L704.982,198.677L704.799,198.668L704.617,198.659L704.434,198.651L704.252,198.644L704.07,198.637L703.888,198.63L703.707,198.624L703.525,198.618L703.344,198.613L703.163,198.608L702.983,198.604L702.621,198.597L702.261,198.592L701.903,198.589L701.545,198.587L701.188,198.587L700.833,198.589L700.48,198.592L700.128,198.597L699.777,198.603L699.428,198.611L699.081,198.62L698.736,198.63L698.392,198.642L698.051,198.656L697.712,198.67L697.375,198.686L697.04,198.703L696.707,198.721L696.377,198.74L696.05,198.76L695.725,198.781L695.402,198.803L695.083,198.826L694.766,198.85L694.452,198.875L694.142,198.9L693.834,198.927L693.53,198.954L693.228,198.981L692.931,199.01L692.636,199.038L692.345,199.068L692.058,199.098L691.774,199.128L691.495,199.159L691.219,199.19L690.947,199.221L690.679,199.253L690.415,199.285L690.155,199.317L689.9,199.349L689.649,199.382L689.403,199.414L689.161,199.447L688.923,199.479L688.691,199.512L688.463,199.544L688.24,199.576L688.022,199.608L687.809,199.64L687.604,199.671L687.202,199.734L686.824,199.794L686.468,199.852L686.135,199.909L685.826,199.962L685.541,200.013L685.282,200.06L685.048,200.104L684.84,200.143L684.659,200.179L684.507,200.209L684.385,200.235L684.22,200.27L684.168,200.282L684.161,200.283L682.528,200.094L681.13,199.316L680.124,198.074L679.658,196.496L679.657,196.484L679.846,194.85L680.623,193.453L681.866,192.447L683.443,191.98L683.45,191.98L683.526,191.981Z" style="fill:rgb(200,127,78);"/>
                </g>
                <g transform="matrix(1,0,0,1,0,-6.04009)">
                    <path d="M614.368,162.92L614.753,162.921L615.137,162.923L615.52,162.925L615.901,162.928L616.281,162.932L616.661,162.937L617.039,162.943L617.415,162.949L617.791,162.956L618.165,162.964L618.539,162.972L618.911,162.981L619.282,162.991L619.652,163.002L620.02,163.014L620.388,163.026L620.754,163.039L621.119,163.053L621.484,163.067L621.846,163.082L622.208,163.098L622.569,163.114L622.928,163.132L623.287,163.15L623.644,163.168L624,163.188L624.355,163.208L624.709,163.229L625.062,163.25L625.413,163.272L625.764,163.295L626.113,163.319L626.461,163.343L626.809,163.368L627.155,163.394L627.499,163.42L627.843,163.447L628.186,163.474L628.527,163.503L628.868,163.532L629.207,163.561L629.546,163.592L629.883,163.623L630.219,163.654L630.554,163.686L630.887,163.719L631.22,163.753L631.552,163.787L631.882,163.822L632.212,163.857L632.54,163.893L632.867,163.93L633.194,163.967L633.519,164.005L633.843,164.044L634.166,164.083L634.488,164.123L634.808,164.163L635.128,164.204L635.447,164.246L635.764,164.288L636.081,164.331L636.396,164.374L636.711,164.418L637.024,164.463L637.336,164.508L637.647,164.554L637.958,164.6L638.267,164.647L638.575,164.694L638.882,164.742L639.188,164.791L639.492,164.84L639.796,164.89L640.099,164.94L640.401,164.991L640.701,165.043L641.001,165.095L641.3,165.147L641.597,165.2L641.894,165.254L642.189,165.308L642.484,165.363L642.777,165.418L643.069,165.474L643.361,165.53L643.651,165.587L643.94,165.644L644.229,165.702L644.516,165.76L644.802,165.819L645.087,165.879L645.371,165.939L645.655,165.999L645.937,166.06L646.218,166.121L646.498,166.183L646.777,166.246L647.055,166.308L647.332,166.372L647.609,166.436L647.884,166.5L648.158,166.565L648.431,166.63L648.703,166.696L648.974,166.762L649.244,166.829L649.513,166.896L649.781,166.964L650.049,167.032L650.315,167.1L650.58,167.169L650.844,167.239L651.107,167.309L651.37,167.379L651.631,167.45L651.891,167.521L652.15,167.593L652.409,167.665L652.666,167.737L652.922,167.81L653.178,167.883L653.432,167.957L653.686,168.031L653.938,168.106L654.19,168.181L654.44,168.256L654.69,168.332L654.939,168.408L655.186,168.485L655.433,168.562L655.679,168.639L655.924,168.717L656.168,168.795L656.411,168.874L656.653,168.953L656.894,169.032L657.134,169.112L657.373,169.192L657.611,169.272L657.848,169.353L658.085,169.434L658.32,169.516L658.555,169.597L658.788,169.68L659.021,169.762L659.252,169.845L659.483,169.928L659.713,170.012L659.942,170.096L660.17,170.18L660.397,170.265L660.623,170.35L660.848,170.435L661.072,170.52L661.296,170.606L661.518,170.693L661.74,170.779L661.96,170.866L662.18,170.953L662.399,171.041L662.617,171.128L662.834,171.216L663.05,171.305L663.265,171.393L663.479,171.482L663.693,171.571L663.905,171.661L664.117,171.751L664.328,171.841L664.537,171.931L664.746,172.022L664.954,172.113L665.162,172.204L665.368,172.295L665.573,172.387L665.778,172.479L665.981,172.571L666.184,172.663L666.386,172.756L666.587,172.849L666.787,172.942L666.986,173.035L667.184,173.129L667.382,173.223L667.578,173.317L667.774,173.411L667.969,173.506L668.163,173.6L668.356,173.695L668.548,173.791L668.74,173.886L668.93,173.982L669.12,174.077L669.309,174.173L669.497,174.269L669.684,174.366L669.87,174.462L670.056,174.559L670.24,174.656L670.424,174.753L670.607,174.851L670.789,174.948L670.97,175.046L671.15,175.144L671.33,175.241L671.508,175.34L671.686,175.438L671.863,175.536L672.039,175.635L672.215,175.734L672.389,175.833L672.563,175.932L672.736,176.031L672.908,176.13L673.079,176.23L673.249,176.329L673.419,176.429L673.587,176.529L673.755,176.629L673.922,176.729L674.088,176.829L674.254,176.93L674.418,177.03L674.582,177.131L674.745,177.231L674.907,177.332L675.069,177.433L675.229,177.534L675.389,177.635L675.548,177.736L675.706,177.837L675.864,177.938L676.02,178.04L676.176,178.141L676.333,178.244L676.639,178.446L676.943,178.649L677.244,178.853L677.542,179.057L677.837,179.261L678.129,179.465L678.418,179.669L678.703,179.874L678.986,180.078L679.266,180.283L679.542,180.487L679.815,180.692L680.086,180.896L680.353,181.1L680.618,181.305L680.879,181.509L681.137,181.713L681.393,181.917L681.645,182.12L681.895,182.324L682.141,182.527L682.385,182.73L682.626,182.933L682.863,183.135L683.098,183.337L683.331,183.538L683.56,183.74L683.786,183.94L684.01,184.141L684.23,184.34L684.448,184.54L684.663,184.738L684.876,184.936L685.085,185.134L685.292,185.331L685.496,185.527L685.698,185.723L685.896,185.918L686.092,186.112L686.285,186.306L686.476,186.498L686.664,186.69L686.849,186.881L687.032,187.072L687.212,187.261L687.389,187.449L687.564,187.637L687.736,187.823L687.905,188.009L688.072,188.194L688.237,188.377L688.399,188.559L688.558,188.741L688.715,188.921L688.87,189.1L689.022,189.278L689.171,189.455L689.318,189.63L689.463,189.804L689.605,189.977L689.744,190.149L689.882,190.319L690.017,190.488L690.149,190.656L690.279,190.822L690.407,190.986L690.533,191.15L690.656,191.311L690.777,191.472L690.895,191.63L691.012,191.787L691.126,191.943L691.238,192.097L691.347,192.249L691.454,192.4L691.56,192.548L691.662,192.695L691.763,192.841L691.862,192.984L691.958,193.126L692.053,193.266L692.145,193.404L692.235,193.54L692.323,193.674L692.409,193.807L692.492,193.937L692.574,194.065L692.654,194.192L692.732,194.316L692.807,194.438L692.881,194.558L692.953,194.676L693.024,194.796L693.156,195.017L693.282,195.233L693.4,195.44L693.511,195.638L693.615,195.826L693.711,196.004L693.8,196.173L693.882,196.331L693.957,196.479L694.026,196.616L694.088,196.742L694.143,196.858L694.192,196.962L694.234,197.054L694.273,197.141L694.323,197.257L694.343,197.305L694.345,197.311L694.62,198.933L694.262,200.491L693.349,201.804L691.965,202.691L691.953,202.696L690.331,202.97L688.773,202.613L687.46,201.7L686.572,200.316L686.57,200.31L686.571,200.308L686.562,200.275L686.555,200.252L686.541,200.211L686.523,200.159L686.5,200.095L686.472,200.02L686.439,199.935L686.4,199.838L686.357,199.73L686.308,199.613L686.253,199.484L686.193,199.346L686.127,199.198L686.055,199.04L685.977,198.872L685.89,198.692L685.848,198.603L685.801,198.509L685.754,198.412L685.704,198.314L685.653,198.213L685.601,198.11L685.546,198.004L685.49,197.897L685.432,197.787L685.373,197.675L685.311,197.562L685.248,197.446L685.184,197.328L685.117,197.208L685.048,197.086L684.978,196.962L684.906,196.836L684.832,196.708L684.756,196.579L684.678,196.447L684.599,196.314L684.517,196.178L684.434,196.041L684.348,195.902L684.261,195.762L684.171,195.619L684.08,195.475L683.986,195.329L683.891,195.182L683.793,195.033L683.693,194.882L683.591,194.729L683.488,194.575L683.382,194.42L683.273,194.263L683.163,194.104L683.05,193.944L682.936,193.782L682.819,193.619L682.7,193.454L682.578,193.288L682.455,193.121L682.329,192.952L682.2,192.782L682.07,192.61L681.937,192.437L681.802,192.263L681.664,192.088L681.524,191.911L681.381,191.733L681.237,191.554L681.089,191.374L680.94,191.193L680.787,191.01L680.633,190.827L680.475,190.642L680.316,190.456L680.153,190.269L679.989,190.081L679.821,189.893L679.651,189.703L679.478,189.512L679.303,189.32L679.125,189.128L678.945,188.934L678.761,188.74L678.575,188.544L678.387,188.348L678.195,188.151L678.001,187.954L677.804,187.755L677.604,187.556L677.402,187.356L677.196,187.156L676.988,186.954L676.777,186.752L676.563,186.55L676.346,186.347L676.126,186.143L675.904,185.939L675.678,185.734L675.449,185.529L675.218,185.323L674.983,185.117L674.745,184.91L674.504,184.703L674.261,184.495L674.014,184.288L673.764,184.079L673.511,183.871L673.254,183.662L672.995,183.453L672.731,183.242L672.6,183.138L672.466,183.034L672.332,182.929L672.197,182.824L672.062,182.719L671.925,182.614L671.788,182.509L671.65,182.403L671.511,182.298L671.371,182.193L671.23,182.088L671.089,181.983L670.947,181.877L670.803,181.772L670.66,181.667L670.515,181.561L670.369,181.456L670.223,181.35L670.076,181.245L669.927,181.14L669.778,181.034L669.629,180.929L669.478,180.824L669.326,180.718L669.174,180.613L669.021,180.507L668.867,180.402L668.712,180.297L668.556,180.191L668.399,180.086L668.242,179.981L668.083,179.876L667.924,179.771L667.764,179.665L667.603,179.56L667.441,179.455L667.278,179.35L667.115,179.245L666.95,179.14L666.785,179.035L666.618,178.931L666.451,178.826L666.283,178.721L666.114,178.617L665.944,178.512L665.773,178.408L665.601,178.303L665.429,178.199L665.255,178.095L665.081,177.99L664.905,177.886L664.729,177.782L664.552,177.679L664.374,177.575L664.195,177.471L664.015,177.367L663.834,177.264L663.652,177.161L663.469,177.057L663.286,176.954L663.101,176.851L662.915,176.748L662.729,176.645L662.541,176.543L662.353,176.44L662.164,176.338L661.973,176.235L661.782,176.133L661.59,176.031L661.397,175.929L661.202,175.828L661.007,175.726L660.811,175.625L660.614,175.524L660.416,175.422L660.217,175.322L660.017,175.221L659.816,175.12L659.615,175.02L659.412,174.919L659.208,174.819L659.003,174.72L658.797,174.62L658.59,174.52L658.383,174.421L658.174,174.322L657.964,174.223L657.753,174.124L657.541,174.026L657.329,173.927L657.115,173.829L656.9,173.731L656.684,173.633L656.467,173.536L656.249,173.439L656.031,173.342L655.811,173.245L655.59,173.148L655.368,173.052L655.145,172.956L654.921,172.86L654.696,172.764L654.47,172.669L654.243,172.574L654.015,172.479L653.786,172.384L653.555,172.29L653.324,172.196L653.092,172.102L652.859,172.008L652.624,171.915L652.389,171.822L652.152,171.729L651.915,171.637L651.676,171.544L651.437,171.452L651.196,171.361L650.954,171.269L650.711,171.178L650.467,171.088L650.222,170.997L649.976,170.907L649.729,170.817L649.481,170.728L649.232,170.638L648.981,170.549L648.73,170.461L648.477,170.373L648.224,170.285L647.969,170.197L647.713,170.11L647.456,170.023L647.198,169.936L646.939,169.85L646.679,169.764L646.417,169.678L646.155,169.593L645.891,169.508L645.627,169.424L645.361,169.34L645.094,169.256L644.826,169.172L644.557,169.089L644.287,169.007L644.015,168.924L643.743,168.842L643.469,168.761L643.195,168.68L642.919,168.599L642.642,168.519L642.364,168.439L642.084,168.359L641.804,168.28L641.522,168.201L641.24,168.123L640.956,168.045L640.671,167.967L640.385,167.89L640.097,167.813L639.809,167.737L639.519,167.661L639.228,167.586L638.936,167.51L638.643,167.436L638.349,167.362L638.054,167.288L637.757,167.215L637.459,167.142L637.16,167.07L636.86,166.998L636.559,166.926L636.256,166.855L635.953,166.785L635.648,166.715L635.342,166.645L635.034,166.576L634.726,166.507L634.416,166.439L634.105,166.371L633.793,166.304L633.48,166.237L633.166,166.171L632.85,166.106L632.533,166.04L632.215,165.976L631.896,165.911L631.576,165.848L631.254,165.784L630.931,165.722L630.607,165.66L630.282,165.598L629.955,165.537L629.627,165.476L629.298,165.416L628.968,165.356L628.637,165.297L628.304,165.239L627.97,165.181L627.635,165.124L627.298,165.067L626.961,165.01L626.622,164.955L626.282,164.9L625.94,164.845L625.598,164.791L625.254,164.737L624.909,164.684L624.562,164.632L624.215,164.58L623.866,164.529L623.516,164.478L623.164,164.428L622.812,164.379L622.458,164.33L622.102,164.282L621.746,164.234L621.388,164.187L621.029,164.141L620.669,164.095L620.307,164.049L619.944,164.005L619.58,163.961L619.215,163.917L618.848,163.875L618.48,163.833L618.111,163.791L617.74,163.75L617.368,163.71L616.995,163.67L616.62,163.631L616.244,163.593L615.867,163.555L615.489,163.518L615.109,163.482L614.728,163.446L614.346,163.411L613.962,163.377L613.577,163.343L613.191,163.31L612.803,163.277L612.414,163.246L612.024,163.215L611.633,163.184L611.24,163.155L610.845,163.126L610.45,163.097L610.053,163.07L609.655,163.043L609.255,163.017L608.854,162.991L609.256,162.981L609.656,162.971L610.055,162.963L610.454,162.955L610.85,162.948L611.246,162.941L611.64,162.936L612.034,162.931L612.426,162.928L612.817,162.925L613.206,162.922L613.595,162.921L613.982,162.92L614.368,162.92Z" style="fill:rgb(200,127,78);"/>
                </g>
            </g>
        </g>
    </g>
</svg>
