<?xml version="1.0" encoding="UTF-8" standalone="no"?>
<!DOCTYPE svg PUBLIC "-//W3C//DTD SVG 1.1//EN" "http://www.w3.org/Graphics/SVG/1.1/DTD/svg11.dtd">
<svg width="100%" height="100%" viewBox="0 0 500 500" version="1.1" xmlns="http://www.w3.org/2000/svg" xmlns:xlink="http://www.w3.org/1999/xlink" xml:space="preserve" xmlns:serif="http://www.serif.com/" style="fill-rule:evenodd;clip-rule:evenodd;stroke-linejoin:round;stroke-miterlimit:1.41421;">
    <g id="Boy3" transform="matrix(2.12089,0,0,2.12089,-157.685,-116.18)">
        <path d="M304.741,172.654C304.741,110.554 254.323,60.137 192.224,60.137C130.124,60.137 79.707,110.554 79.707,172.654C79.707,234.754 130.124,285.171 192.224,285.171C254.323,285.171 304.741,234.754 304.741,172.654Z" style="fill:rgb(101,113,129);fill-opacity:0;"/>
        <clipPath id="_clip1">
            <path d="M304.741,172.654C304.741,110.554 254.323,60.137 192.224,60.137C130.124,60.137 79.707,110.554 79.707,172.654C79.707,234.754 130.124,285.171 192.224,285.171C254.323,285.171 304.741,234.754 304.741,172.654Z"/>
        </clipPath>
        <g clip-path="url(#_clip1)">
            <path id="CircleBackground" d="M304.741,172.654C304.741,110.554 254.323,60.137 192.224,60.137C130.124,60.137 79.707,110.554 79.707,172.654C79.707,234.754 130.124,285.171 192.224,285.171C254.323,285.171 304.741,234.754 304.741,172.654Z" style="fill:rgb(101,113,129);"/>
            <g id="Avatar" transform="matrix(0.750114,0,0,0.750114,-536.108,-30.5151)">
                <g transform="matrix(0.941971,0,0,0.969549,56.3437,-4.90962)">
                    <ellipse cx="970.962" cy="247.963" rx="115.56" ry="84.173" style="fill:rgb(37,37,37);"/>
                </g>
                <g transform="matrix(0.73724,0,0,1.84194,154.606,-1469.59)">
                    <rect x="1091.41" y="976.271" width="34.75" height="33.84" style="fill:rgb(168,113,91);"/>
                </g>
                <g transform="matrix(0.73724,0,0,0.970338,154.606,-589.178)">
                    <path d="M1126.16,984.402L1091.41,967.375L1091.41,1010.11L1126.16,1010.11L1126.16,984.402Z" style="fill:rgb(195,134,103);"/>
                </g>
                <g transform="matrix(0.839642,-0.186038,0.199641,0.897316,-204.896,-597.729)">
                    <path d="M1034.64,1178.84C1045.3,1184.19 1047.84,1190.31 1047.71,1203.72C1047.58,1217.53 1044.66,1222.57 1035.05,1224.81C1027,1226.69 1008.19,1219.15 1007.04,1201.46C1005.77,1181.84 1023.8,1173.39 1034.64,1178.84Z" style="fill:rgb(195,134,103);"/>
                </g>
                <g transform="matrix(-0.834047,-0.184798,-0.199641,0.897316,2141.04,-599.004)">
                    <path d="M1034.64,1178.84C1045.3,1184.19 1047.84,1190.31 1047.71,1203.72C1047.58,1217.53 1044.66,1222.57 1035.05,1224.81C1027,1226.69 1008.19,1219.15 1007.04,1201.46C1005.77,1181.84 1023.8,1173.39 1034.64,1178.84Z" style="fill:rgb(195,134,103);"/>
                </g>
                <g transform="matrix(1.1112,0,0,1.20208,-266.232,-839.01)">
                    <path d="M1049.75,937.331C1049.75,902.393 1176.38,902.559 1176.33,937.496C1176.27,972.562 1147.92,987.887 1113.09,987.644C1078.15,987.401 1049.75,972.269 1049.75,937.331Z" style="fill:rgb(168,113,91);"/>
                </g>
                <g transform="matrix(1.1112,0,0,1.12863,-266.232,-775.978)">
                    <path d="M1056.64,895.602C1067.5,883.559 1160.12,880.793 1171.41,895.085C1183.86,910.851 1176.36,919.171 1176.33,937.496C1176.27,972.562 1147.92,987.887 1113.09,987.644C1078.15,987.401 1049.75,972.269 1049.75,937.331C1049.75,917.368 1042.18,911.657 1056.64,895.602Z" style="fill:rgb(195,134,103);"/>
                </g>
                <g transform="matrix(1.21452,0,0,1.23252,-661.927,-1222.74)">
                    <g transform="matrix(1.17625,0,0,1.15907,1156.64,1045.43)">
                        <path d="M160.324,218.557L176.155,212.117C176.155,212.117 199.925,213.615 203.195,241.349C203.916,247.461 205.633,258.639 195.407,262.984C176.545,270.998 137.573,269.1 121.591,263.394C113.51,260.509 115.368,247.049 116.04,241.349C119.311,213.615 143.081,212.117 143.081,212.117L160.324,218.557Z" style="fill:rgb(161,167,185);"/>
                        <clipPath id="_clip2">
                            <path d="M160.324,218.557L176.155,212.117C176.155,212.117 199.925,213.615 203.195,241.349C203.916,247.461 205.633,258.639 195.407,262.984C176.545,270.998 137.573,269.1 121.591,263.394C113.51,260.509 115.368,247.049 116.04,241.349C119.311,213.615 143.081,212.117 143.081,212.117L160.324,218.557Z"/>
                        </clipPath>
                        <g clip-path="url(#_clip2)">
                            <path d="M142.886,212.515C142.886,212.515 153.847,217.359 156.512,220.532C163.079,228.35 156.866,260.091 158.886,268.257C166.012,297.064 221.631,244.489 213.191,231.875C206.207,224.041 200.428,215.973 178.755,210.999L142.886,212.515Z" style="fill:rgb(124,122,162);fill-opacity:0.490196;"/>
                        </g>
                    </g>
                    <g transform="matrix(1.2066,0,0,1.18553,1111.51,1006.65)">
                        <path d="M184.986,231.767L193.856,246.54L175.523,240.547C177.642,237.136 180.871,234.243 184.986,231.767Z" style="fill:rgb(161,167,185);"/>
                    </g>
                    <g transform="matrix(-1.2066,0,0,1.18553,1579.04,1006.65)">
                        <path d="M184.986,231.767L193.856,246.54L175.523,240.547C178.157,237.428 181.202,234.461 184.986,231.767Z" style="fill:rgb(161,167,185);"/>
                    </g>
                    <g transform="matrix(1.11378,0,0,1.09752,1124.92,1034.01)">
                        <circle cx="197.947" cy="245.728" r="1.985" style="fill:rgb(211,202,182);"/>
                    </g>
                    <g transform="matrix(1.11378,0,0,1.09752,1124.92,1045.05)">
                        <circle cx="197.947" cy="245.728" r="1.985" style="fill:rgb(211,202,182);"/>
                    </g>
                    <g transform="matrix(1.11378,0,0,1.09752,1124.92,1056.08)">
                        <circle cx="197.947" cy="245.728" r="1.985" style="fill:rgb(211,202,182);"/>
                    </g>
                </g>
                <g transform="matrix(0.941971,0,0,0.941971,54.8733,27.0665)">
                    <path d="M909.58,209.436C908.474,225.874 914.086,311.774 908.603,311.421C903.12,311.067 887.922,270.785 887.631,239.359C887.339,207.934 910.254,199.417 909.58,209.436Z" style="fill:rgb(37,37,37);"/>
                </g>
                <g transform="matrix(-0.941971,0,0,0.941971,1885.76,27.0665)">
                    <path d="M909.155,209.619C905.349,224.286 914.086,311.774 908.603,311.421C903.12,311.067 887.922,270.785 887.631,239.359C887.339,207.934 911.676,199.899 909.155,209.619Z" style="fill:rgb(37,37,37);"/>
                </g>
            </g>
        </g>
    </g>
</svg>
