<?xml version="1.0" encoding="UTF-8" standalone="no"?>
<!DOCTYPE svg PUBLIC "-//W3C//DTD SVG 1.1//EN" "http://www.w3.org/Graphics/SVG/1.1/DTD/svg11.dtd">
<svg width="100%" height="100%" viewBox="0 0 500 500" version="1.1" xmlns="http://www.w3.org/2000/svg" xmlns:xlink="http://www.w3.org/1999/xlink" xml:space="preserve" xmlns:serif="http://www.serif.com/" style="fill-rule:evenodd;clip-rule:evenodd;stroke-linejoin:round;stroke-miterlimit:1.41421;">
    <g id="Boy4" transform="matrix(2.12089,0,0,2.12089,-157.685,-116.18)">
        <path d="M304.741,172.654C304.741,110.554 254.323,60.137 192.224,60.137C130.124,60.137 79.707,110.554 79.707,172.654C79.707,234.754 130.124,285.171 192.224,285.171C254.323,285.171 304.741,234.754 304.741,172.654Z" style="fill:rgb(101,113,129);fill-opacity:0;"/>
        <clipPath id="_clip1">
            <path d="M304.741,172.654C304.741,110.554 254.323,60.137 192.224,60.137C130.124,60.137 79.707,110.554 79.707,172.654C79.707,234.754 130.124,285.171 192.224,285.171C254.323,285.171 304.741,234.754 304.741,172.654Z"/>
        </clipPath>
        <g clip-path="url(#_clip1)">
            <path id="CircleBackground" d="M304.741,172.654C304.741,110.554 254.323,60.137 192.224,60.137C130.124,60.137 79.707,110.554 79.707,172.654C79.707,234.754 130.124,285.171 192.224,285.171C254.323,285.171 304.741,234.754 304.741,172.654Z" style="fill:rgb(101,113,129);"/>
            <g id="Avatar" transform="matrix(0.750114,0,0,0.750114,-536.108,-30.5151)">
                <g transform="matrix(0.73724,0,0,1.84194,154.606,-1469.59)">
                    <rect x="1091.41" y="976.271" width="34.75" height="33.84" style="fill:rgb(208,130,102);"/>
                </g>
                <g transform="matrix(0.73724,0,0,0.970338,154.606,-589.178)">
                    <path d="M1126.16,984.402L1091.41,967.375L1091.41,1010.11L1126.16,1010.11L1126.16,984.402Z" style="fill:rgb(231,157,128);"/>
                </g>
                <g transform="matrix(0.839642,-0.186038,0.199641,0.897316,-204.896,-597.729)">
                    <path d="M1034.64,1178.84C1045.3,1184.19 1047.84,1190.31 1047.71,1203.72C1047.58,1217.53 1044.66,1222.57 1035.05,1224.81C1027,1226.69 1008.19,1219.15 1007.04,1201.46C1005.77,1181.84 1023.8,1173.39 1034.64,1178.84Z" style="fill:rgb(231,157,128);"/>
                </g>
                <g transform="matrix(-0.834047,-0.184798,-0.199641,0.897316,2141.04,-599.004)">
                    <path d="M1034.64,1178.84C1045.3,1184.19 1047.84,1190.31 1047.71,1203.72C1047.58,1217.53 1044.66,1222.57 1035.05,1224.81C1027,1226.69 1008.19,1219.15 1007.04,1201.46C1005.77,1181.84 1023.8,1173.39 1034.64,1178.84Z" style="fill:rgb(231,157,128);"/>
                </g>
                <g transform="matrix(1.1112,0,0,1.20208,-266.232,-839.01)">
                    <path d="M1049.75,937.331C1049.75,902.393 1176.38,902.559 1176.33,937.496C1176.27,972.562 1147.92,987.887 1113.09,987.644C1078.15,987.401 1049.75,972.269 1049.75,937.331Z" style="fill:rgb(208,130,102);"/>
                </g>
                <g transform="matrix(1.1112,0,0,1.12863,-266.232,-775.978)">
                    <path d="M1063.34,863.705C1074.19,851.662 1153.42,848.895 1164.71,863.187C1177.17,878.953 1176.36,919.171 1176.33,937.496C1176.27,972.562 1147.92,987.887 1113.09,987.644C1078.15,987.401 1049.75,972.269 1049.75,937.331C1049.75,917.368 1048.87,879.759 1063.34,863.705Z" style="fill:rgb(231,157,128);"/>
                </g>
                <g transform="matrix(1.46769,0,0,1.07433,-235.358,-1928.48)">
                    <path d="M821.944,1957.86C870.709,1957.86 867.555,1992.01 867.266,2004.15C852.663,1981.98 839.269,2004.06 821.944,2004.06C804.62,2004.06 790.323,1982.95 776.622,2004.15C775.552,1997.34 773.179,1957.86 821.944,1957.86Z" style="fill:rgb(193,193,193);"/>
                </g>
                <g transform="matrix(1.21452,0,0,1.23252,-661.927,-1222.74)">
                    <g transform="matrix(1.17625,0,0,1.15907,1156.64,1045.43)">
                        <path d="M160.324,218.557L176.155,212.117C176.155,212.117 199.925,213.615 203.195,241.349C203.916,247.461 205.633,258.639 195.407,262.984C176.545,270.998 137.573,269.1 121.591,263.394C113.51,260.509 115.368,247.049 116.04,241.349C119.311,213.615 143.081,212.117 143.081,212.117L160.324,218.557Z" style="fill:rgb(65,65,65);"/>
                        <clipPath id="_clip2">
                            <path d="M160.324,218.557L176.155,212.117C176.155,212.117 199.925,213.615 203.195,241.349C203.916,247.461 205.633,258.639 195.407,262.984C176.545,270.998 137.573,269.1 121.591,263.394C113.51,260.509 115.368,247.049 116.04,241.349C119.311,213.615 143.081,212.117 143.081,212.117L160.324,218.557Z"/>
                        </clipPath>
                        <g clip-path="url(#_clip2)">
                            <path d="M142.886,212.515C142.886,212.515 153.847,217.359 156.512,220.532C163.079,228.35 156.866,260.091 158.886,268.257C166.012,297.064 221.631,244.489 213.191,231.875C206.207,224.041 200.428,215.973 178.755,210.999L142.886,212.515Z" style="fill:rgb(43,43,38);fill-opacity:0.490196;"/>
                        </g>
                    </g>
                    <g transform="matrix(1.2066,0,0,1.18553,1111.51,1006.65)">
                        <path d="M184.986,231.767L193.856,246.54L175.523,240.547C177.642,237.136 180.871,234.243 184.986,231.767Z" style="fill:rgb(54,54,52);"/>
                    </g>
                    <g transform="matrix(-1.2066,0,0,1.18553,1579.04,1006.65)">
                        <path d="M184.986,231.767L193.856,246.54L175.523,240.547C178.157,237.428 181.202,234.461 184.986,231.767Z" style="fill:rgb(54,54,52);"/>
                    </g>
                    <g transform="matrix(1.11378,0,0,1.09752,1124.92,1034.01)">
                        <circle cx="197.947" cy="245.728" r="1.985" style="fill:rgb(97,97,94);"/>
                    </g>
                    <g transform="matrix(1.11378,0,0,1.09752,1124.92,1045.05)">
                        <circle cx="197.947" cy="245.728" r="1.985" style="fill:rgb(97,97,94);"/>
                    </g>
                    <g transform="matrix(1.11378,0,0,1.09752,1124.92,1056.08)">
                        <circle cx="197.947" cy="245.728" r="1.985" style="fill:rgb(97,97,94);"/>
                    </g>
                </g>
            </g>
        </g>
    </g>
</svg>
