<?xml version="1.0" encoding="UTF-8" standalone="no"?>
<!DOCTYPE svg PUBLIC "-//W3C//DTD SVG 1.1//EN" "http://www.w3.org/Graphics/SVG/1.1/DTD/svg11.dtd">
<svg width="100%" height="100%" viewBox="0 0 500 500" version="1.1" xmlns="http://www.w3.org/2000/svg" xmlns:xlink="http://www.w3.org/1999/xlink" xml:space="preserve" xmlns:serif="http://www.serif.com/" style="fill-rule:evenodd;clip-rule:evenodd;stroke-linejoin:round;stroke-miterlimit:1.41421;">
    <g id="CupGold" transform="matrix(2.4716,0,0,2.4716,-2492.43,-1116.65)">
        <g transform="matrix(0.933477,0,0,0.933477,71.3106,36.9186)">
            <rect x="1100.82" y="552.445" width="24.779" height="69.417" style="fill:rgb(255,229,113);"/>
            <clipPath id="_clip1">
                <rect x="1100.82" y="552.445" width="24.779" height="69.417"/>
            </clipPath>
            <g clip-path="url(#_clip1)">
                <g transform="matrix(1,0,0,1,5.95924,-1.7122)">
                    <rect x="1107.65" y="441.391" width="87.37" height="182.29" style="fill:rgb(232,177,65);"/>
                </g>
            </g>
        </g>
        <g transform="matrix(0.816341,0,0,0.689691,202.484,191.001)">
            <rect x="1046" y="596.223" width="132.518" height="64.013" style="fill:rgb(83,101,125);"/>
        </g>
        <g transform="matrix(0.933477,0,0,-0.121088,72.1976,677.305)">
            <rect x="1046" y="596.223" width="132.518" height="64.013" style="fill:rgb(131,147,167);"/>
        </g>
        <g transform="matrix(0.933477,0,0,0.933477,85.2806,34.3116)">
            <path d="M1087.71,472.564C1098.78,472.774 1108.7,482.175 1108.91,493.768C1108.99,505.161 1108.99,516.555 1108.91,527.948C1108.71,539.038 1099.27,548.933 1087.71,549.152C1076.48,549.224 1065.25,549.189 1054.02,549.153C1030.16,548.927 1008.39,528.521 1008.15,503.279C1008.13,497.569 1007.54,491.875 1009.45,486.66C1012.42,478.566 1020.55,472.731 1029.35,472.564C1048.8,472.439 1068.26,472.439 1087.71,472.564ZM1029.64,481.896C1023.33,481.936 1017.61,487.23 1017.48,493.888C1017.43,501.272 1017.21,508.678 1019.64,515.427C1024.69,529.46 1038.74,539.674 1054.08,539.82C1065.25,539.855 1076.42,539.891 1087.59,539.819C1093.88,539.7 1099.46,534.182 1099.58,527.831C1099.65,516.516 1099.65,505.2 1099.58,493.885C1099.46,487.628 1094.07,482.02 1087.59,481.897C1068.28,481.773 1048.96,481.896 1029.64,481.896Z" style="fill:rgb(232,177,65);fill-rule:nonzero;"/>
        </g>
        <g transform="matrix(-0.933477,0,0,0.933477,2133.95,34.3116)">
            <path d="M1029.35,472.564C1018.25,472.775 1008.37,482.354 1008.15,493.765C1008.09,502.163 1008.03,510.571 1010.76,518.321C1017.01,536.045 1034.83,548.971 1054.02,549.153C1065.25,549.189 1076.48,549.224 1087.71,549.152C1098.81,548.942 1108.68,539.507 1108.91,527.948C1108.97,516.555 1108.97,505.161 1108.91,493.768C1108.69,482.677 1099.3,472.784 1087.71,472.564C1068.26,472.439 1048.8,472.44 1029.35,472.564ZM1087.42,481.896C1093.7,481.936 1099.37,487.265 1099.58,493.73C1099.8,505.095 1099.64,516.464 1099.58,527.831C1099.46,534.116 1094.07,539.696 1087.59,539.819C1076.34,539.891 1065.09,539.924 1053.84,539.817C1034.95,539.517 1017.8,523.069 1017.48,503.457C1017.42,496.797 1016.82,489.577 1021.14,485.354C1023.35,483.205 1026.36,481.956 1029.47,481.897C1048.79,481.773 1068.1,481.896 1087.42,481.896Z" style="fill:rgb(232,177,65);fill-rule:nonzero;"/>
        </g>
        <g transform="matrix(0.933477,0,0,0.933477,52.7754,22.1097)">
            <path d="M1187.24,472.943L1078.9,472.943L1078.9,525.707C1078.9,555.603 1103.17,579.874 1133.07,579.874C1162.96,579.874 1187.24,555.603 1187.24,525.707L1187.24,472.943Z" style="fill:rgb(255,229,113);"/>
            <clipPath id="_clip2">
                <path d="M1187.24,472.943L1078.9,472.943L1078.9,525.707C1078.9,555.603 1103.17,579.874 1133.07,579.874C1162.96,579.874 1187.24,555.603 1187.24,525.707L1187.24,472.943Z"/>
            </clipPath>
            <g clip-path="url(#_clip2)">
                <g transform="matrix(1,0,0,1,25.8153,14.152)">
                    <rect x="1107.65" y="441.391" width="87.37" height="182.29" style="fill:rgb(232,177,65);"/>
                </g>
            </g>
        </g>
        <g transform="matrix(0.4258,0,0,0.440168,807.358,360.393)">
            <path d="M835.302,229.736C835.302,227.234 833.202,225.203 830.616,225.203L589.107,225.203C586.52,225.203 584.421,227.234 584.421,229.736L584.421,238.802C584.421,241.304 586.52,243.335 589.107,243.335L830.616,243.335C833.202,243.335 835.302,241.304 835.302,238.802L835.302,229.736Z" style="fill:rgb(255,229,113);"/>
        </g>
        <g id="Star" transform="matrix(0.933477,0,0,0.933477,69.7657,26.8516)">
            <path d="M1089.65,475.306L1094.71,488.985L1108.39,494.047L1094.71,499.109L1089.65,512.789L1084.58,499.109L1070.9,494.047L1084.58,488.985L1089.65,475.306Z" style="fill:white;"/>
        </g>
        <g id="Star1" serif:id="Star" transform="matrix(0.552454,0,0,0.552454,472.447,246.623)">
            <path d="M1089.65,475.306L1094.71,488.985L1108.39,494.047L1094.71,499.109L1089.65,512.789L1084.58,499.109L1070.9,494.047L1084.58,488.985L1089.65,475.306Z" style="fill:white;"/>
        </g>
        <g transform="matrix(0.933477,0,0,0.933477,73.8149,36.9186)">
            <rect x="1075.4" y="617.954" width="72.515" height="23.206" style="fill:rgb(255,229,113);"/>
            <clipPath id="_clip3">
                <rect x="1075.4" y="617.954" width="72.515" height="23.206"/>
            </clipPath>
            <g clip-path="url(#_clip3)">
                <g transform="matrix(1,0,0,0.264804,3.27643,492.455)">
                    <rect x="1107.65" y="441.391" width="87.37" height="182.29" style="fill:rgb(232,177,65);"/>
                </g>
            </g>
        </g>
    </g>
</svg>
