<?xml version="1.0" encoding="UTF-8" standalone="no"?>
<!DOCTYPE svg PUBLIC "-//W3C//DTD SVG 1.1//EN" "http://www.w3.org/Graphics/SVG/1.1/DTD/svg11.dtd">
<svg width="100%" height="100%" viewBox="0 0 500 500" version="1.1" xmlns="http://www.w3.org/2000/svg" xmlns:xlink="http://www.w3.org/1999/xlink" xml:space="preserve" xmlns:serif="http://www.serif.com/" style="fill-rule:evenodd;clip-rule:evenodd;stroke-linejoin:round;stroke-miterlimit:1.41421;">
    <g id="Girl2" transform="matrix(2.12089,0,0,2.12089,-157.685,-116.18)">
        <path d="M304.741,172.654C304.741,110.554 254.323,60.137 192.224,60.137C130.124,60.137 79.707,110.554 79.707,172.654C79.707,234.754 130.124,285.171 192.224,285.171C254.323,285.171 304.741,234.754 304.741,172.654Z" style="fill:rgb(101,113,129);fill-opacity:0;"/>
        <clipPath id="_clip1">
            <path d="M304.741,172.654C304.741,110.554 254.323,60.137 192.224,60.137C130.124,60.137 79.707,110.554 79.707,172.654C79.707,234.754 130.124,285.171 192.224,285.171C254.323,285.171 304.741,234.754 304.741,172.654Z"/>
        </clipPath>
        <g clip-path="url(#_clip1)">
            <path id="CircleBackground" d="M304.741,172.654C304.741,110.554 254.323,60.137 192.224,60.137C130.124,60.137 79.707,110.554 79.707,172.654C79.707,234.754 130.124,285.171 192.224,285.171C254.323,285.171 304.741,234.754 304.741,172.654Z" style="fill:rgb(101,113,129);"/>
            <g id="Avatar" transform="matrix(0.706336,0,0,0.706336,-258.659,-284.44)">
                <g transform="matrix(1.29693,0,0,1.30293,-188.543,-217.485)">
                    <path d="M638.361,569.504C726.84,569.504 723.634,643.936 723.634,698.982C723.634,728.777 671.863,758.05 626.021,755.591C587.17,753.507 553.087,724.234 553.087,698.982C553.087,643.936 549.881,569.504 638.361,569.504Z" style="fill:rgb(37,37,37);"/>
                </g>
                <ellipse cx="633.902" cy="717.949" rx="77.961" ry="47.565" style="fill:rgb(22,22,22);"/>
                <g transform="matrix(0.73724,0,0,1.84194,-176.603,-1093.72)">
                    <path d="M1126.16,976.271L1091.41,976.271C1096.14,987.762 1096.47,999.057 1091.41,1010.11L1126.16,1010.11C1122.54,998.744 1123.18,987.48 1126.16,976.271Z" style="fill:rgb(195,134,103);"/>
                    <clipPath id="_clip2">
                        <path d="M1126.16,976.271L1091.41,976.271C1096.14,987.762 1096.47,999.057 1091.41,1010.11L1126.16,1010.11C1122.54,998.744 1123.18,987.48 1126.16,976.271Z"/>
                    </clipPath>
                    <g clip-path="url(#_clip2)">
                        <g transform="matrix(1.60009,0,0,0.692822,-638.052,305.077)">
                            <path d="M1113.09,863.49C1183,863.49 1170.69,908.887 1176.33,943.825C1181.92,978.508 1139.76,987.644 1113.09,987.644C1086.42,987.644 1045.53,978.379 1049.75,943.66C1054.01,908.542 1043.18,863.49 1113.09,863.49Z" style="fill:rgb(168,113,91);"/>
                        </g>
                    </g>
                </g>
                <g transform="matrix(0.680369,-0.150748,0.0729064,0.657154,-224.57,25.99)">
                    <path d="M1034.64,1178.84C1045.3,1184.19 1047.84,1190.31 1047.71,1203.72C1047.58,1217.53 1044.66,1222.57 1035.05,1224.81C1027,1226.69 1008.19,1219.15 1007.04,1201.46C1005.77,1181.84 1023.8,1173.39 1034.64,1178.84Z" style="fill:rgb(150,100,75);"/>
                </g>
                <g transform="matrix(-0.680369,-0.150748,-0.0729064,0.657154,1499.68,25.99)">
                    <path d="M1034.64,1178.84C1045.3,1184.19 1047.84,1190.31 1047.71,1203.72C1047.58,1217.53 1044.66,1222.57 1035.05,1224.81C1027,1226.69 1008.19,1219.15 1007.04,1201.46C1005.77,1181.84 1023.8,1173.39 1034.64,1178.84Z" style="fill:rgb(150,100,75);"/>
                </g>
                <g transform="matrix(1.17965,0,0,1.27613,-673.656,-540.421)">
                    <path d="M1113.09,863.49C1183,863.49 1170.69,908.887 1176.33,943.825C1181.92,978.508 1139.76,987.644 1113.09,987.644C1086.42,987.644 1045.53,978.379 1049.75,943.66C1054.01,908.542 1043.18,863.49 1113.09,863.49Z" style="fill:rgb(168,113,91);"/>
                </g>
                <g transform="matrix(1.17965,0,0,1.19201,-673.656,-467.776)">
                    <path d="M1113.09,863.49C1183,863.49 1170.69,908.887 1176.33,943.825C1181.92,978.508 1139.76,987.644 1113.09,987.644C1086.42,987.644 1045.53,978.379 1049.75,943.66C1054.01,908.542 1043.18,863.49 1113.09,863.49Z" style="fill:rgb(195,134,103);"/>
                </g>
                <g transform="matrix(1,0,0,1,352.433,0)">
                    <g>
                        <path d="M288.906,747.911C298.979,747.911 299.172,740.646 299.172,740.646C299.172,740.646 349.13,746.806 353.802,786.426C354.547,792.74 355.6,809.309 347.314,814.214C321.167,829.693 255.041,825.763 229.598,813.982C220.993,809.997 223.215,793.164 224.009,786.426C228.682,746.806 278.316,740.646 278.316,740.646C278.316,740.646 278.833,747.911 288.906,747.911Z" style="fill:rgb(252,197,78);"/>
                        <clipPath id="_clip3">
                            <path d="M288.906,747.911C298.979,747.911 299.172,740.646 299.172,740.646C299.172,740.646 349.13,746.806 353.802,786.426C354.547,792.74 355.6,809.309 347.314,814.214C321.167,829.693 255.041,825.763 229.598,813.982C220.993,809.997 223.215,793.164 224.009,786.426C228.682,746.806 278.316,740.646 278.316,740.646C278.316,740.646 278.833,747.911 288.906,747.911Z"/>
                        </clipPath>
                        <g clip-path="url(#_clip3)">
                            <path d="M375.436,714.225L285.134,716.23C289.344,751.968 295.563,782.49 291.058,811.182L375.436,856.999L375.436,714.225Z" style="fill:rgb(253,175,49);"/>
                            <g transform="matrix(1,0,0,1,-352.124,-1.75452)">
                                <ellipse cx="641.702" cy="744.517" rx="28.184" ry="13.782" style="fill:rgb(195,134,103);"/>
                            </g>
                        </g>
                    </g>
                </g>
                <g transform="matrix(1.4637,0,0,1.59651,-1564.44,-432.413)">
                    <path d="M1475.81,641.282C1547.74,641.496 1557.35,683.687 1533.1,747.287C1533.1,747.287 1565.4,736.463 1568.6,697.4C1571.81,658.337 1558.62,598.747 1493,605.43C1424.14,612.443 1414.31,745.293 1480.6,747.792C1460.32,710.338 1459.6,674.515 1475.81,641.282Z" style="fill:rgb(37,37,37);"/>
                </g>
                <g transform="matrix(0.745673,-0.666312,-0.666312,-0.745673,179.764,1189.03)">
                    <path d="M702.775,210.669L703.891,208.484L704.566,206.058L704.568,206.045L704.739,203.534L704.413,201.101L702.437,196.731L698.973,193.413L696.787,192.297L694.406,191.635L694.413,191.635L694.394,191.632L694.362,191.623L694.355,191.622L694.321,191.619L694.394,191.632L694.406,191.635L694.362,191.636L694.282,191.636L694.236,191.638L694.162,191.635L694.071,191.63L693.964,191.623L693.841,191.614L693.701,191.602L693.545,191.588L693.373,191.57L693.184,191.55L692.979,191.527L692.758,191.501L692.521,191.471L692.268,191.438L691.999,191.401L691.714,191.36L691.413,191.316L691.096,191.267L690.763,191.215L690.415,191.158L690.051,191.096L689.664,191.029L689.475,190.996L689.275,190.96L689.071,190.923L688.863,190.884L688.652,190.845L688.436,190.804L688.217,190.761L687.994,190.718L687.767,190.673L687.536,190.627L687.301,190.579L687.063,190.53L686.82,190.48L686.574,190.428L686.324,190.375L686.07,190.32L685.812,190.264L685.55,190.207L685.285,190.148L685.016,190.087L684.742,190.025L684.466,189.961L684.185,189.896L683.9,189.829L683.612,189.761L683.32,189.691L683.024,189.619L682.725,189.546L682.421,189.471L682.114,189.394L681.803,189.315L681.489,189.235L681.17,189.153L680.848,189.069L680.522,188.984L680.193,188.897L679.86,188.807L679.523,188.716L679.182,188.624L678.837,188.529L678.489,188.432L678.138,188.334L677.782,188.233L677.423,188.131L677.06,188.027L676.694,187.92L676.323,187.812L675.95,187.701L675.572,187.589L675.191,187.475L674.806,187.358L674.418,187.239L674.026,187.119L673.63,186.996L673.231,186.871L672.828,186.744L672.422,186.614L672.011,186.483L671.598,186.349L671.18,186.213L670.76,186.075L670.335,185.934L669.907,185.791L669.476,185.646L669.04,185.499L668.602,185.349L668.159,185.197L667.714,185.042L667.264,184.885L666.811,184.726L666.355,184.564L665.895,184.4L665.432,184.233L664.965,184.064L664.494,183.892L664.02,183.718L663.543,183.541L663.062,183.362L662.577,183.18L662.09,182.995L661.598,182.808L661.103,182.618L660.605,182.426L660.103,182.23L659.598,182.033L659.089,181.832L658.577,181.629L658.062,181.423L657.543,181.214L657.021,181.003L656.495,180.788L655.966,180.571L655.433,180.351L654.897,180.128L654.358,179.902L653.815,179.674L653.269,179.442L652.72,179.208L652.167,178.97L651.611,178.73L651.051,178.487L650.488,178.24L649.922,177.991L649.353,177.739L648.78,177.483L648.203,177.225L647.624,176.963L647.041,176.698L646.455,176.43L645.866,176.159L645.273,175.885L644.677,175.608L644.078,175.327L643.475,175.044L642.869,174.757L642.26,174.466L641.648,174.173L641.032,173.876L640.413,173.576L639.791,173.272L639.166,172.965L638.538,172.655L637.906,172.342L637.271,172.025L636.633,171.704L635.991,171.38L635.347,171.053L634.699,170.722L634.048,170.388L633.394,170.05L632.737,169.709L632.076,169.364L631.413,169.015L630.746,168.663L630.076,168.308L629.403,167.949L628.727,167.586L628.048,167.219L627.366,166.849L626.68,166.475L625.991,166.097L625.3,165.716L624.605,165.331L623.907,164.942L623.206,164.549L622.502,164.152L621.795,163.752L621.085,163.348L620.372,162.94L619.656,162.528L618.936,162.112L618.214,161.692L617.489,161.269L616.76,160.841L616.029,160.409L615.294,159.974L614.557,159.534L613.817,159.091L613.073,158.643L612.327,158.191L611.578,157.735L610.825,157.275L610.07,156.811L609.312,156.343L608.551,155.871L607.787,155.394L607.02,154.914L606.249,154.428L605.863,154.185L605.477,153.94L605.089,153.693L604.701,153.446L604.312,153.198L603.922,152.948L603.532,152.698L603.141,152.447L602.749,152.194L602.356,151.94L601.963,151.686L601.569,151.43L601.174,151.173L600.778,150.915L600.382,150.656L599.985,150.396L599.587,150.134L599.189,149.872L598.79,149.608L598.39,149.344L597.99,149.078L597.588,148.811L597.186,148.543L596.784,148.275L596.38,148.004L595.976,147.733L595.572,147.461L595.166,147.187L594.76,146.913L594.353,146.637L593.945,146.36L593.537,146.082L593.128,145.803L592.718,145.523L592.308,145.242L591.897,144.959L591.485,144.676L591.072,144.391L590.659,144.105L590.245,143.818L589.831,143.53L589.415,143.24L588.999,142.95L588.582,142.658L588.165,142.365L587.747,142.071L587.328,141.776L586.909,141.48L586.489,141.182L586.068,140.884L585.646,140.584L585.224,140.283L584.801,139.981L584.377,139.677L583.953,139.373L583.528,139.067L583.102,138.76L582.676,138.452L582.249,138.143L581.821,137.832L581.393,137.521L580.964,137.208L580.534,136.894L580.104,136.578L579.673,136.262L579.241,135.944L578.808,135.625L578.375,135.305L578.742,135.7L579.108,136.093L579.474,136.485L579.839,136.876L580.205,137.266L580.569,137.655L580.934,138.042L581.298,138.428L581.661,138.813L582.024,139.196L582.387,139.578L582.75,139.96L583.112,140.339L583.474,140.718L583.835,141.096L584.196,141.472L584.556,141.847L584.917,142.221L585.276,142.593L585.636,142.965L585.995,143.335L586.353,143.704L586.712,144.072L587.07,144.439L587.427,144.804L587.784,145.168L588.141,145.531L588.497,145.893L588.853,146.254L589.208,146.613L589.563,146.972L589.918,147.329L590.272,147.685L590.626,148.039L590.979,148.393L591.332,148.745L591.685,149.097L592.037,149.447L592.389,149.796L592.74,150.143L593.091,150.49L593.442,150.835L593.792,151.18L594.142,151.523L594.491,151.865L594.84,152.205L595.189,152.545L595.537,152.884L595.884,153.221L596.231,153.557L596.578,153.892L596.924,154.226L597.27,154.559L597.616,154.89L597.961,155.221L598.306,155.55L598.65,155.878L598.993,156.205L599.337,156.531L599.68,156.856L600.022,157.18L600.364,157.502L600.706,157.823L601.047,158.144L601.387,158.463L601.728,158.781L602.067,159.098L602.407,159.414L603.084,160.042L603.76,160.666L604.433,161.285L605.105,161.9L605.775,162.511L606.444,163.117L607.11,163.719L607.775,164.316L608.437,164.909L609.098,165.498L609.757,166.082L610.414,166.663L611.069,167.239L611.722,167.81L612.373,168.378L613.023,168.941L613.67,169.5L614.315,170.054L614.959,170.605L615.6,171.151L616.24,171.693L616.877,172.231L617.513,172.765L618.146,173.295L618.778,173.821L619.407,174.342L620.034,174.86L620.66,175.373L621.283,175.883L621.904,176.388L622.523,176.889L623.14,177.387L623.755,177.88L624.367,178.369L624.978,178.855L625.586,179.336L626.193,179.813L626.797,180.287L627.399,180.757L627.999,181.223L628.596,181.684L629.192,182.142L629.785,182.597L630.376,183.047L630.965,183.494L631.551,183.936L632.136,184.375L632.718,184.811L633.297,185.242L633.875,185.67L634.45,186.094L635.023,186.514L635.594,186.93L636.162,187.343L636.728,187.753L637.291,188.158L637.853,188.56L638.411,188.958L638.968,189.353L639.522,189.744L640.074,190.131L640.623,190.515L641.17,190.896L641.715,191.273L642.257,191.646L642.796,192.016L643.333,192.382L643.868,192.745L644.4,193.104L644.93,193.46L645.457,193.812L645.982,194.161L646.504,194.507L647.024,194.849L647.541,195.188L648.056,195.524L648.568,195.856L649.077,196.185L649.584,196.51L650.089,196.832L650.59,197.151L651.089,197.467L651.586,197.779L652.08,198.088L652.571,198.394L653.06,198.697L653.545,198.996L654.029,199.292L654.509,199.585L654.987,199.875L655.462,200.162L655.935,200.446L656.404,200.726L656.871,201.004L657.336,201.278L657.797,201.549L658.256,201.818L658.712,202.083L659.165,202.345L659.615,202.604L660.063,202.86L660.507,203.113L660.949,203.364L661.388,203.611L661.824,203.855L662.258,204.097L662.688,204.335L663.116,204.571L663.54,204.803L663.962,205.033L664.381,205.26L664.797,205.484L665.21,205.706L665.62,205.924L666.027,206.14L666.431,206.353L666.832,206.563L667.23,206.771L667.625,206.976L668.017,207.178L668.406,207.377L668.792,207.574L669.175,207.768L669.555,207.959L669.932,208.148L670.306,208.334L670.677,208.517L671.044,208.698L671.409,208.876L671.77,209.052L672.128,209.225L672.483,209.396L672.835,209.564L673.184,209.729L673.53,209.893L673.872,210.053L674.211,210.211L674.547,210.367L674.88,210.52L675.209,210.671L675.536,210.82L675.859,210.966L676.179,211.11L676.495,211.251L676.808,211.39L677.118,211.527L677.425,211.661L677.728,211.793L678.028,211.923L678.325,212.051L678.618,212.176L678.908,212.299L679.195,212.42L679.478,212.539L679.758,212.655L680.034,212.769L680.307,212.881L680.577,212.991L680.843,213.099L681.105,213.205L681.365,213.309L681.62,213.41L681.873,213.51L682.121,213.607L682.367,213.703L682.608,213.796L682.847,213.887L683.088,213.979L683.54,214.15L683.985,214.315L684.415,214.472L684.83,214.622L685.232,214.765L685.618,214.9L685.99,215.028L686.347,215.149L686.689,215.263L687.016,215.37L687.328,215.471L687.625,215.565L687.907,215.653L688.174,215.734L688.425,215.809L688.66,215.878L688.88,215.941L689.084,215.999L689.273,216.05L689.446,216.097L689.614,216.14L689.864,216.202L690.058,216.247L690.137,216.263L690.143,216.264L692.655,216.435L695.087,216.11L699.458,214.134L702.775,210.669Z" style="fill:rgb(37,37,37);"/>
                </g>
                <g transform="matrix(-0.745673,-0.666312,0.666312,-0.745673,1096.91,1185.96)">
                    <path d="M712.921,210.546L712.741,210.703L712.559,210.858L712.376,211.01L712.192,211.161L712.006,211.31L711.82,211.456L711.632,211.601L711.443,211.743L711.252,211.884L711.061,212.022L710.868,212.159L710.674,212.293L710.48,212.425L710.284,212.555L710.087,212.683L709.89,212.809L709.691,212.933L709.491,213.054L709.291,213.174L709.09,213.291L708.888,213.406L708.685,213.52L708.482,213.631L708.278,213.74L708.073,213.847L707.867,213.952L707.661,214.054L707.454,214.155L707.247,214.254L707.039,214.351L706.83,214.445L706.621,214.538L706.412,214.628L706.202,214.717L705.991,214.803L705.78,214.888L705.569,214.97L705.357,215.051L705.145,215.13L704.933,215.207L704.72,215.281L704.507,215.354L704.294,215.425L704.08,215.494L703.866,215.562L703.652,215.627L703.437,215.691L703.223,215.752L703.008,215.812L702.793,215.87L702.577,215.927L702.362,215.981L702.146,216.034L701.93,216.085L701.714,216.135L701.498,216.182L701.282,216.228L701.065,216.273L700.848,216.315L700.632,216.356L700.415,216.396L700.198,216.433L699.981,216.47L699.763,216.504L699.546,216.537L699.329,216.569L699.111,216.599L698.893,216.627L698.676,216.654L698.458,216.679L698.24,216.703L698.022,216.726L697.804,216.747L697.585,216.766L697.367,216.784L697.149,216.801L696.93,216.816L696.712,216.83L696.493,216.842L696.274,216.853L696.056,216.863L695.837,216.871L695.618,216.878L695.398,216.884L695.179,216.888L694.96,216.891L694.741,216.893L694.521,216.894L694.301,216.893L694.082,216.891L693.862,216.887L693.642,216.883L693.422,216.877L693.202,216.87L692.982,216.861L692.761,216.852L692.541,216.841L692.32,216.829L692.099,216.816L691.878,216.802L691.657,216.786L691.436,216.77L691.215,216.752L690.993,216.733L690.771,216.713L690.55,216.692L690.328,216.669L690.105,216.646L689.883,216.621L689.661,216.595L689.438,216.568L689.215,216.54L688.992,216.511L688.769,216.481L688.545,216.45L688.322,216.418L688.098,216.384L687.874,216.35L687.65,216.314L687.425,216.277L687.201,216.24L686.976,216.201L686.751,216.161L686.526,216.12L686.3,216.079L686.074,216.036L685.848,215.992L685.622,215.947L685.396,215.901L685.169,215.854L684.942,215.806L684.715,215.757L684.487,215.707L684.26,215.655L684.032,215.603L683.803,215.55L683.575,215.496L683.346,215.441L683.117,215.385L682.888,215.328L682.658,215.27L682.428,215.211L682.198,215.151L681.968,215.09L681.737,215.028L681.506,214.965L681.274,214.901L681.043,214.836L680.811,214.77L680.578,214.703L680.346,214.635L680.113,214.566L679.88,214.496L679.646,214.426L679.412,214.354L679.178,214.281L678.944,214.208L678.709,214.133L678.474,214.057L678.238,213.981L678.002,213.903L677.766,213.825L677.53,213.746L677.293,213.665L677.056,213.584L676.818,213.502L676.58,213.419L676.342,213.334L676.103,213.249L675.864,213.163L675.625,213.076L675.385,212.988L675.145,212.9L674.905,212.81L674.664,212.719L674.423,212.627L674.182,212.535L673.94,212.441L673.698,212.347L673.455,212.251L673.212,212.155L672.969,212.057L672.725,211.959L672.481,211.86L672.236,211.76L671.992,211.659L671.746,211.557L671.501,211.454L671.255,211.35L671.008,211.245L670.761,211.139L670.514,211.033L670.267,210.925L670.019,210.817L669.77,210.707L669.522,210.597L669.272,210.485L669.023,210.373L668.773,210.26L668.523,210.146L668.272,210.03L668.021,209.914L667.769,209.797L667.517,209.68L667.265,209.561L667.012,209.441L666.759,209.32L666.505,209.199L666.251,209.076L665.997,208.953L665.742,208.828L665.487,208.703L665.231,208.576L664.975,208.449L664.719,208.321L664.462,208.192L664.205,208.062L663.947,207.931L663.689,207.799L663.43,207.666L663.172,207.532L662.912,207.397L662.652,207.262L662.392,207.125L662.132,206.988L661.871,206.849L661.609,206.71L661.347,206.569L661.085,206.428L660.822,206.286L660.559,206.143L660.296,205.999L660.032,205.854L659.767,205.708L659.503,205.561L659.237,205.413L658.972,205.264L658.706,205.114L658.439,204.964L658.172,204.812L657.905,204.659L657.637,204.506L657.369,204.351L657.1,204.196L656.831,204.04L656.562,203.882L656.292,203.724L656.022,203.565L655.751,203.405L655.48,203.244L655.208,203.082L654.936,202.919L654.664,202.755L654.391,202.59L654.118,202.424L653.844,202.258L653.57,202.09L653.295,201.921L653.02,201.752L652.745,201.581L652.469,201.41L652.193,201.237L651.916,201.064L651.639,200.889L651.361,200.714L651.083,200.538L650.805,200.361L650.526,200.183L650.247,200.003L649.967,199.823L649.687,199.642L649.407,199.46L649.126,199.277L648.845,199.094L648.563,198.909L648.281,198.723L647.998,198.536L647.715,198.348L647.432,198.16L647.148,197.97L646.864,197.78L646.579,197.588L646.294,197.396L646.008,197.202L645.722,197.008L645.436,196.812L645.149,196.616L644.862,196.419L644.574,196.22L644.286,196.021L643.998,195.821L643.709,195.62L643.419,195.418L643.13,195.215L642.84,195.01L642.549,194.805L642.258,194.599L641.967,194.392L641.675,194.185L641.383,193.976L641.09,193.766L640.797,193.555L640.504,193.343L640.21,193.13L639.915,192.917L639.621,192.702L639.326,192.486L639.03,192.27L638.734,192.052L638.438,191.833L638.141,191.614L637.844,191.393L637.546,191.172L637.248,190.949L636.95,190.726L636.651,190.501L636.352,190.276L636.052,190.049L635.752,189.822L635.452,189.593L635.151,189.364L634.85,189.134L634.548,188.902L634.246,188.67L633.944,188.437L633.641,188.203L633.338,187.967L633.034,187.731L632.73,187.494L632.426,187.256L632.121,187.017L631.816,186.776L631.51,186.535L631.204,186.293L630.898,186.05L630.591,185.806L630.284,185.561L629.976,185.315L629.668,185.068L629.36,184.82L629.051,184.571L628.742,184.32L628.433,184.069L628.123,183.817L627.812,183.564L627.502,183.31L627.191,183.055L626.879,182.799L626.567,182.542L626.255,182.284L625.942,182.025L625.629,181.765L625.316,181.505L625.002,181.243L624.688,180.98L624.373,180.716L624.058,180.451L623.743,180.185L623.427,179.918L623.111,179.65L622.795,179.381L622.478,179.111L622.161,178.84L621.843,178.568L621.525,178.295L621.207,178.021L620.888,177.746L620.569,177.47L620.25,177.193L619.93,176.915L619.61,176.636L619.288,176.355L618.647,175.793L618.003,175.226L617.358,174.655L616.711,174.08L616.063,173.501L615.414,172.918L614.763,172.33L614.11,171.739L613.457,171.144L612.801,170.544L612.145,169.941L611.487,169.333L610.827,168.722L610.166,168.106L609.504,167.486L608.84,166.862L608.175,166.234L607.509,165.602L606.841,164.966L606.172,164.326L605.502,163.682L604.83,163.033L604.157,162.381L603.482,161.724L602.807,161.063L602.129,160.398L601.451,159.729L600.771,159.056L600.09,158.378L599.408,157.697L598.724,157.011L598.04,156.321L597.353,155.627L596.666,154.929L595.977,154.227L595.288,153.521L594.596,152.81L593.904,152.095L593.211,151.376L592.516,150.653L591.82,149.926L591.123,149.194L590.424,148.458L589.725,147.719L589.024,146.974L588.322,146.226L587.619,145.473L586.915,144.717L586.562,144.337L586.209,143.956L585.856,143.574L585.502,143.191L585.149,142.806L584.795,142.421L584.44,142.035L584.086,141.647L583.731,141.259L583.376,140.87L583.02,140.479L582.665,140.087L582.309,139.695L581.953,139.301L581.596,138.906L581.239,138.51L580.882,138.113L580.525,137.716L580.167,137.316L579.809,136.916L579.451,136.515L579.093,136.113L578.734,135.71L578.375,135.305L578.796,135.645L579.215,135.984L579.635,136.322L580.054,136.659L580.472,136.995L580.89,137.33L581.307,137.663L581.724,137.996L582.14,138.327L582.556,138.658L582.971,138.987L583.386,139.316L583.8,139.643L584.214,139.969L584.627,140.295L585.04,140.619L585.452,140.942L585.864,141.264L586.275,141.585L586.685,141.905L587.096,142.224L587.505,142.542L587.914,142.859L588.323,143.175L589.138,143.803L589.952,144.428L590.763,145.048L591.572,145.664L592.379,146.276L593.184,146.883L593.986,147.487L594.787,148.086L595.585,148.682L596.381,149.273L597.175,149.86L597.967,150.443L598.756,151.022L599.544,151.596L600.329,152.167L601.112,152.733L601.892,153.296L602.671,153.854L603.447,154.408L604.221,154.959L604.992,155.505L605.762,156.047L606.529,156.585L607.294,157.119L608.056,157.649L608.816,158.175L609.574,158.696L610.329,159.214L611.082,159.728L611.833,160.238L612.581,160.743L613.327,161.245L614.071,161.743L614.812,162.237L615.551,162.726L616.288,163.212L617.022,163.694L617.753,164.172L618.482,164.645L619.209,165.115L619.933,165.581L620.655,166.043L621.375,166.501L622.091,166.955L622.806,167.405L623.518,167.851L624.227,168.294L624.935,168.733L625.286,168.95L625.638,169.166L625.989,169.382L626.34,169.597L626.69,169.811L627.039,170.023L627.388,170.235L627.736,170.446L628.083,170.656L628.43,170.865L628.776,171.073L629.122,171.28L629.466,171.486L629.811,171.691L630.154,171.895L630.497,172.098L630.839,172.3L631.181,172.501L631.522,172.701L631.862,172.9L632.201,173.099L632.54,173.296L632.879,173.492L633.216,173.687L633.553,173.882L633.89,174.075L634.225,174.268L634.56,174.459L634.894,174.65L635.228,174.839L635.561,175.028L635.893,175.215L636.225,175.402L636.556,175.588L636.886,175.773L637.216,175.956L637.545,176.139L637.873,176.321L638.2,176.502L638.527,176.682L638.854,176.861L639.179,177.039L639.504,177.216L639.828,177.393L640.152,177.568L640.474,177.742L640.796,177.915L641.118,178.088L641.438,178.259L641.758,178.43L642.078,178.599L642.396,178.768L642.714,178.935L643.032,179.102L643.348,179.268L643.664,179.433L643.979,179.597L644.293,179.759L644.607,179.921L644.92,180.082L645.232,180.243L645.544,180.402L645.855,180.56L646.165,180.717L646.474,180.874L646.783,181.029L647.091,181.183L647.398,181.337L647.705,181.49L648.011,181.641L648.316,181.792L648.62,181.942L648.924,182.091L649.227,182.239L649.529,182.386L649.83,182.532L650.131,182.677L650.431,182.821L650.73,182.964L651.029,183.107L651.327,183.248L651.624,183.389L651.92,183.528L652.216,183.667L652.51,183.805L652.804,183.941L653.098,184.077L653.39,184.212L653.682,184.346L653.973,184.479L654.264,184.612L654.553,184.743L654.842,184.873L655.13,185.003L655.417,185.131L655.704,185.259L655.989,185.386L656.274,185.511L656.559,185.636L656.842,185.76L657.125,185.883L657.407,186.005L657.688,186.127L657.968,186.247L658.247,186.366L658.526,186.485L658.804,186.602L659.081,186.719L659.358,186.835L659.633,186.95L659.908,187.064L660.182,187.177L660.456,187.289L660.728,187.4L661,187.51L661.271,187.62L661.541,187.728L661.81,187.836L662.078,187.943L662.346,188.048L662.613,188.153L662.879,188.257L663.144,188.361L663.408,188.463L663.672,188.564L663.935,188.665L664.197,188.764L664.458,188.863L664.718,188.961L664.978,189.057L665.236,189.153L665.494,189.249L665.751,189.343L666.007,189.436L666.262,189.528L666.517,189.62L666.77,189.711L667.023,189.8L667.275,189.889L667.526,189.977L667.776,190.064L668.026,190.151L668.274,190.236L668.522,190.321L668.769,190.404L669.014,190.487L669.26,190.569L669.504,190.65L669.747,190.73L669.989,190.809L670.231,190.887L670.472,190.965L670.712,191.041L670.95,191.117L671.188,191.192L671.426,191.266L671.662,191.339L671.897,191.411L672.132,191.483L672.365,191.553L672.598,191.623L672.83,191.692L673.061,191.76L673.291,191.827L673.52,191.893L673.748,191.959L673.975,192.023L674.201,192.087L674.427,192.15L674.651,192.211L674.875,192.273L675.097,192.333L675.319,192.392L675.54,192.451L675.759,192.508L675.978,192.565L676.196,192.621L676.413,192.676L676.629,192.731L676.844,192.784L677.058,192.837L677.271,192.889L677.483,192.94L677.694,192.99L677.905,193.039L678.114,193.088L678.322,193.135L678.529,193.182L678.736,193.228L678.941,193.273L679.145,193.318L679.348,193.361L679.551,193.404L679.752,193.446L679.952,193.487L680.152,193.527L680.35,193.566L680.547,193.605L680.743,193.643L680.939,193.68L681.133,193.716L681.326,193.751L681.518,193.786L681.709,193.82L681.899,193.853L682.088,193.885L682.276,193.916L682.463,193.947L682.649,193.976L682.833,194.005L683.017,194.034L683.2,194.061L683.381,194.088L683.562,194.114L683.741,194.139L683.919,194.163L684.096,194.187L684.272,194.209L684.447,194.231L684.621,194.253L684.794,194.273L684.966,194.293L685.136,194.312L685.305,194.33L685.474,194.347L685.641,194.364L685.807,194.38L685.972,194.395L686.135,194.41L686.298,194.424L686.459,194.437L686.619,194.449L686.778,194.461L686.936,194.472L687.093,194.482L687.248,194.491L687.403,194.5L687.556,194.508L687.707,194.515L687.858,194.522L688.008,194.528L688.156,194.533L688.303,194.538L688.449,194.542L688.593,194.545L688.737,194.548L688.879,194.549L689.02,194.551L689.159,194.551L689.297,194.551L689.434,194.551L689.57,194.549L689.705,194.547L689.838,194.545L689.97,194.541L690.101,194.538L690.23,194.533L690.358,194.528L690.485,194.523L690.61,194.516L690.734,194.51L690.857,194.502L690.978,194.494L691.098,194.486L691.217,194.477L691.335,194.467L691.451,194.457L691.565,194.446L691.679,194.435L691.79,194.423L691.901,194.411L692.01,194.399L692.118,194.385L692.224,194.372L692.329,194.358L692.433,194.343L692.535,194.328L692.636,194.312L692.735,194.296L692.833,194.28L692.929,194.263L693.025,194.246L693.118,194.228L693.21,194.21L693.301,194.192L693.39,194.173L693.478,194.154L693.564,194.135L693.649,194.115L693.733,194.095L693.815,194.075L693.895,194.054L693.974,194.033L694.052,194.012L694.128,193.991L694.202,193.969L694.275,193.947L694.347,193.925L694.417,193.903L694.485,193.88L694.552,193.858L694.618,193.835L694.682,193.812L694.745,193.789L694.806,193.766L694.865,193.742L694.923,193.719L694.98,193.695L695.035,193.672L695.089,193.648L695.141,193.625L695.192,193.601L695.241,193.578L695.289,193.554L695.335,193.531L695.38,193.507L695.423,193.484L695.465,193.461L695.505,193.437L695.544,193.414L695.581,193.391L695.618,193.369L695.652,193.346L695.685,193.324L695.717,193.302L695.748,193.28L695.777,193.258L695.804,193.236L695.831,193.215L695.856,193.194L695.879,193.174L695.902,193.153L695.923,193.133L695.942,193.114L695.961,193.094L695.978,193.075L695.994,193.057L696.009,193.039L696.022,193.021L696.035,193.004L696.046,192.987L696.056,192.97L696.065,192.954L696.072,192.939L696.079,192.924L696.085,192.909L696.089,192.895L696.093,192.882L696.096,192.869L696.097,192.856L696.098,192.844L696.098,192.833L696.097,192.822L696.143,192.78L696.047,192.843L696.092,192.801L696.136,192.759L696.041,192.825L696.084,192.783L696.127,192.741L696.032,192.809L696.073,192.767L696.114,192.725L696.02,192.795L696.06,192.753L696.099,192.71L696.005,192.784L696.044,192.741L696.082,192.698L695.988,192.774L696.025,192.731L696.062,192.688L695.969,192.767L696.005,192.724L696.04,192.68L695.948,192.761L695.983,192.718L696.016,192.674L695.926,192.757L695.959,192.714L695.991,192.67L695.902,192.755L695.934,192.711L695.965,192.667L695.877,192.754L695.908,192.71L695.938,192.666L695.851,192.755L695.881,192.711L695.91,192.666L695.825,192.758L695.853,192.713L695.881,192.668L695.798,192.761L695.825,192.716L695.852,192.67L695.77,192.765L695.797,192.72L695.823,192.674L695.743,192.771L695.768,192.724L695.793,192.678L695.715,192.776L695.74,192.729L695.764,192.682L695.688,192.782L695.712,192.735L695.735,192.687L695.662,192.789L695.685,192.74L695.707,192.692L695.711,192.686L697.361,190.785L699.307,189.291L703.791,187.586L708.587,187.678L710.924,188.429L713.118,189.662L713.129,189.669L715.03,191.319L716.525,193.266L718.229,197.75L718.137,202.546L717.387,204.882L716.154,207.077L716.15,207.082L716.04,207.222L715.891,207.412L715.741,207.601L715.589,207.788L715.435,207.973L715.279,208.157L715.122,208.339L714.962,208.52L714.801,208.698L714.638,208.876L714.474,209.051L714.308,209.224L714.14,209.396L713.97,209.566L713.799,209.734L713.626,209.901L713.452,210.065L713.277,210.227L713.099,210.388L712.921,210.546Z" style="fill:rgb(37,37,37);"/>
                </g>
                <g transform="matrix(1,0,0,1,0,-2.22052)">
                    <path d="M558.934,585.064C573.877,558.568 598.8,539.559 639.37,539.559C679.939,539.559 704.862,558.568 719.805,585.064C708.119,571.09 693.183,560.283 674.2,554.394C664.116,550.764 652.571,548.752 639.37,548.752C626.168,548.752 614.622,550.765 604.539,554.394C585.556,560.283 570.621,571.09 558.934,585.064Z" style="fill:rgb(212,116,84);"/>
                </g>
            </g>
        </g>
    </g>
</svg>
