<?xml version="1.0" encoding="UTF-8" standalone="no"?>
<!DOCTYPE svg PUBLIC "-//W3C//DTD SVG 1.1//EN" "http://www.w3.org/Graphics/SVG/1.1/DTD/svg11.dtd">
<svg width="100%" height="100%" viewBox="0 0 500 500" version="1.1" xmlns="http://www.w3.org/2000/svg" xmlns:xlink="http://www.w3.org/1999/xlink" xml:space="preserve" xmlns:serif="http://www.serif.com/" style="fill-rule:evenodd;clip-rule:evenodd;stroke-linejoin:round;stroke-miterlimit:1.41421;">
    <g id="Art" transform="matrix(1.43155,0,0,1.43155,-887.458,-1324.92)">
        <g id="Shadow" transform="matrix(0.976826,0.69317,-0.580789,1.44275,815.657,-13.3632)">
            <path d="M418.664,680.14C454.84,623.808 462.621,571.165 439.215,522.575L296.267,522.575L266.86,666.752L236.352,686.281L418.664,680.14Z" style="fill:url(#_Linear1);"/>
        </g>
        <g id="Icon" transform="matrix(-2.34611,-1.35453,1.35453,-2.34611,799.759,5261.36)">
            <g transform="matrix(1,0,0,1.11583,38.5551,-155.109)">
                <path d="M757.919,1322.62C759.326,1322.62 764.032,1319.99 765.232,1325.31C757.793,1328.8 767.332,1353.48 767.332,1364.42C767.332,1379.42 748.506,1379.42 748.506,1364.42C748.506,1352.26 755.184,1330.39 751.157,1323.91C752.048,1321.09 756.937,1322.62 757.919,1322.62Z" style="fill:rgb(159,109,186);"/>
                <clipPath id="_clip2">
                    <path d="M757.919,1322.62C759.326,1322.62 764.032,1319.99 765.232,1325.31C757.793,1328.8 767.332,1353.48 767.332,1364.42C767.332,1379.42 748.506,1379.42 748.506,1364.42C748.506,1352.26 755.184,1330.39 751.157,1323.91C752.048,1321.09 756.937,1322.62 757.919,1322.62Z"/>
                </clipPath>
                <g clip-path="url(#_clip2)">
                    <g transform="matrix(1,0,0,0.896192,0.542765,146.493)">
                        <rect x="748.834" y="1305.01" width="17.336" height="29.207" style="fill:rgb(237,202,131);"/>
                    </g>
                    <g transform="matrix(1,0,0,0.896192,-22.583,137.388)">
                        <rect x="780.17" y="1328.36" width="16.842" height="105.843" style="fill:rgb(37,41,47);fill-opacity:0.227451;"/>
                    </g>
                </g>
            </g>
            <g transform="matrix(1,0,0,1,37.0559,7.92608)">
                <path d="M772.032,1281.37C763.483,1293.05 773.019,1301.8 773.233,1309.75C773.462,1318.23 769.489,1323.7 758.576,1323.94C749.251,1324.14 743.438,1317.47 742.387,1309.59C740.778,1297.51 750.252,1281.13 772.032,1281.37Z" style="fill:white;"/>
                <clipPath id="_clip3">
                    <path d="M772.032,1281.37C763.483,1293.05 773.019,1301.8 773.233,1309.75C773.462,1318.23 769.489,1323.7 758.576,1323.94C749.251,1324.14 743.438,1317.47 742.387,1309.59C740.778,1297.51 750.252,1281.13 772.032,1281.37Z"/>
                </clipPath>
                <g clip-path="url(#_clip3)">
                    <g transform="matrix(-0.377468,0.217931,-0.217931,-0.377468,1258.2,1539.09)">
                        <path d="M687.103,1037.75C687.103,1037.75 731.29,1045.01 713.498,1092.62C695.706,1140.22 637.794,1061.2 637.794,1061.2L687.103,1037.75Z" style="fill:rgb(255,140,158);"/>
                    </g>
                    <g transform="matrix(1,0,0,1,4.8866,-0.0512849)">
                        <path d="M768.788,1281.23C757.696,1282.59 742.517,1308.63 763.516,1321.65C784.514,1334.66 731.869,1338.04 731.812,1335.48C731.755,1332.92 725.785,1289 725.785,1289C725.785,1289 743.129,1267.49 745.259,1267.37C747.389,1267.25 778.21,1277.09 768.788,1281.23Z" style="fill:rgb(43,51,63);fill-opacity:0.211765;"/>
                    </g>
                </g>
            </g>
        </g>
    </g>
    <defs>
        <linearGradient id="_Linear1" x1="0" y1="0" x2="1" y2="0" gradientUnits="userSpaceOnUse" gradientTransform="matrix(105.609,-1.6767,-22.9844,83.2212,313.577,590.228)"><stop offset="0" style="stop-color:black;stop-opacity:0.192157"/><stop offset="1" style="stop-color:black;stop-opacity:0"/></linearGradient>
    </defs>
</svg>
