<?xml version="1.0" encoding="UTF-8" standalone="no"?>
<!DOCTYPE svg PUBLIC "-//W3C//DTD SVG 1.1//EN" "http://www.w3.org/Graphics/SVG/1.1/DTD/svg11.dtd">
<svg width="100%" height="100%" viewBox="0 0 500 500" version="1.1" xmlns="http://www.w3.org/2000/svg" xmlns:xlink="http://www.w3.org/1999/xlink" xml:space="preserve" xmlns:serif="http://www.serif.com/" style="fill-rule:evenodd;clip-rule:evenodd;stroke-linejoin:round;stroke-miterlimit:1.41421;">
    <g id="Boy1" transform="matrix(2.12089,0,0,2.12089,-157.685,-116.18)">
        <path d="M304.741,172.654C304.741,110.554 254.323,60.137 192.224,60.137C130.124,60.137 79.707,110.554 79.707,172.654C79.707,234.754 130.124,285.171 192.224,285.171C254.323,285.171 304.741,234.754 304.741,172.654Z" style="fill:rgb(101,113,129);fill-opacity:0;"/>
        <clipPath id="_clip1">
            <path d="M304.741,172.654C304.741,110.554 254.323,60.137 192.224,60.137C130.124,60.137 79.707,110.554 79.707,172.654C79.707,234.754 130.124,285.171 192.224,285.171C254.323,285.171 304.741,234.754 304.741,172.654Z"/>
        </clipPath>
        <g clip-path="url(#_clip1)">
            <path id="CircleBackground" d="M304.741,172.654C304.741,110.554 254.323,60.137 192.224,60.137C130.124,60.137 79.707,110.554 79.707,172.654C79.707,234.754 130.124,285.171 192.224,285.171C254.323,285.171 304.741,234.754 304.741,172.654Z" style="fill:rgb(101,113,129);"/>
            <g id="Avatar" transform="matrix(0.750114,0,0,0.750114,-25.005,-34.9826)">
                <g transform="matrix(0.73724,0,0,1.84194,-534.528,-1469.59)">
                    <rect x="1091.41" y="976.271" width="34.75" height="33.84" style="fill:rgb(242,198,153);"/>
                </g>
                <g transform="matrix(0.73724,0,0,0.970338,-534.528,-589.178)">
                    <path d="M1126.16,984.402L1091.41,967.375L1091.41,1010.11L1126.16,1010.11L1126.16,984.402Z" style="fill:rgb(255,213,170);"/>
                </g>
                <g transform="matrix(0.891367,-0.197499,0.21194,0.952594,-964.378,-660.943)">
                    <path d="M1034.64,1178.84C1045.3,1184.19 1047.84,1190.31 1047.71,1203.72C1047.58,1217.53 1044.66,1222.57 1035.05,1224.81C1027,1226.69 1008.19,1219.15 1007.04,1201.46C1005.77,1181.84 1023.8,1173.39 1034.64,1178.84Z" style="fill:rgb(255,213,170);"/>
                </g>
                <g transform="matrix(-0.885427,-0.196182,-0.21194,0.952594,1522.06,-662.322)">
                    <path d="M1034.64,1178.84C1045.3,1184.19 1047.84,1190.31 1047.71,1203.72C1047.58,1217.53 1044.66,1222.57 1035.05,1224.81C1027,1226.69 1008.19,1219.15 1007.04,1201.46C1005.77,1181.84 1023.8,1173.39 1034.64,1178.84Z" style="fill:rgb(255,213,170);"/>
                </g>
                <g transform="matrix(1.17965,0,0,1.27613,-1031.58,-916.292)">
                    <path d="M1113.09,858.134C1148.03,858.134 1176.38,902.559 1176.33,937.496C1176.27,972.562 1147.92,987.887 1113.09,987.644C1078.15,987.401 1049.75,972.269 1049.75,937.331C1049.75,902.393 1078.15,858.134 1113.09,858.134Z" style="fill:rgb(242,198,153);"/>
                </g>
                <g transform="matrix(1.17965,0,0,1.19816,-1031.58,-849.377)">
                    <path d="M1113.09,858.134C1148.03,858.134 1176.38,902.559 1176.33,937.496C1176.27,972.562 1147.92,987.887 1113.09,987.644C1078.15,987.401 1049.75,972.269 1049.75,937.331C1049.75,902.393 1078.15,858.134 1113.09,858.134Z" style="fill:rgb(255,213,170);"/>
                </g>
                <g transform="matrix(1.21452,0,0,1.23252,-1351.06,-1222.74)">
                    <g transform="matrix(1.17625,0,0,1.15907,1156.64,1045.43)">
                        <path d="M160.324,218.557L176.155,212.117C176.155,212.117 199.959,213.611 203.195,241.349C203.95,247.823 204.29,258.476 198.575,262.884C179.525,277.581 129.908,274.762 117.098,258.636C114.694,255.61 115.826,245.395 116.04,241.349C117.52,213.462 143.081,212.117 143.081,212.117L160.324,218.557Z" style="fill:rgb(146,59,58);"/>
                        <clipPath id="_clip2">
                            <path d="M160.324,218.557L176.155,212.117C176.155,212.117 199.959,213.611 203.195,241.349C203.95,247.823 204.29,258.476 198.575,262.884C179.525,277.581 129.908,274.762 117.098,258.636C114.694,255.61 115.826,245.395 116.04,241.349C117.52,213.462 143.081,212.117 143.081,212.117L160.324,218.557Z"/>
                        </clipPath>
                        <g clip-path="url(#_clip2)">
                            <path d="M142.886,212.515C142.886,212.515 153.847,217.359 156.512,220.532C163.079,228.35 155.251,260.67 158.886,268.257C178.964,310.167 238.979,261.846 213.191,231.875C206.207,224.041 200.428,215.973 178.755,210.999L142.886,212.515Z" style="fill:rgb(125,50,50);"/>
                        </g>
                    </g>
                    <g transform="matrix(1.2066,0,0,1.18553,1111.51,1006.65)">
                        <path d="M184.986,231.767L193.856,246.54L175.523,240.547C177.642,237.136 180.871,234.243 184.986,231.767Z" style="fill:rgb(146,59,58);"/>
                    </g>
                    <g transform="matrix(-1.2066,0,0,1.18553,1579.04,1006.65)">
                        <path d="M184.986,231.767L193.856,246.54L175.523,240.547C178.157,237.428 181.202,234.461 184.986,231.767Z" style="fill:rgb(125,50,50);"/>
                    </g>
                    <g transform="matrix(1.11378,0,0,1.09752,1124.92,1034.01)">
                        <circle cx="197.947" cy="245.728" r="1.985" style="fill:rgb(179,164,128);"/>
                    </g>
                    <g transform="matrix(1.11378,0,0,1.09752,1124.92,1045.05)">
                        <circle cx="197.947" cy="245.728" r="1.985" style="fill:rgb(179,164,128);"/>
                    </g>
                    <g transform="matrix(1.11378,0,0,1.09752,1124.92,1056.08)">
                        <circle cx="197.947" cy="245.728" r="1.985" style="fill:rgb(179,164,128);"/>
                    </g>
                </g>
                <g transform="matrix(1.17313,0,0,1.2124,-1295.7,-1201.31)">
                    <path d="M1311.68,1268.91C1334.1,1274.21 1355.94,1274.23 1377.2,1268.91C1377.2,1268.91 1358.91,1283.69 1344.63,1283.69C1331.88,1283.69 1311.68,1268.91 1311.68,1268.91Z" style="fill:rgb(45,43,42);"/>
                </g>
                <g transform="matrix(1.42857,0,0,1.42857,53.701,65.7702)">
                    <path d="M111.945,141.695C108.625,156.118 110.171,167.994 110.171,167.994C110.171,167.994 104.07,155.057 104.765,134.547C104.75,121.994 106.582,92.155 123.359,77.965C121.591,86.167 121.522,91.09 122.314,93.946C130.823,83.488 149.678,66.001 181.018,65.286C175.462,68.817 170.774,72.585 166.852,76.284C179.39,74.871 202.888,75.347 225.716,87.022C222.383,87.7 212.842,90.222 209.506,90.936C215.517,91.962 231.042,93.03 237.105,94.777C233.565,103.54 222.949,113.053 213.468,118.088C220.715,145.908 208.703,167.994 208.703,167.994C208.703,167.994 209.635,159.879 208.97,149.219C203.162,138.001 178.601,136.974 165.225,133.345C170.291,137.33 176.715,141.4 184.588,144.646C153.221,144.181 133.068,130.544 123.792,122.396C123.563,123.943 123.216,125.549 122.743,127.178C120.439,135.121 115.909,141.022 111.945,141.695Z" style="fill:rgb(45,43,42);"/>
                </g>
            </g>
        </g>
    </g>
</svg>
