<?xml version="1.0" encoding="UTF-8" standalone="no"?>
<!DOCTYPE svg PUBLIC "-//W3C//DTD SVG 1.1//EN" "http://www.w3.org/Graphics/SVG/1.1/DTD/svg11.dtd">
<svg width="100%" height="100%" viewBox="0 0 500 500" version="1.1" xmlns="http://www.w3.org/2000/svg" xmlns:xlink="http://www.w3.org/1999/xlink" xml:space="preserve" xmlns:serif="http://www.serif.com/" style="fill-rule:evenodd;clip-rule:evenodd;stroke-linejoin:round;stroke-miterlimit:1.41421;">
    <g id="CloudRainIcon" transform="matrix(0.904257,0,0,0.904257,-540.101,-926.156)">
        <g id="Cloud" transform="matrix(1,0,0,1,0,2.92377)">
            <path d="M708.871,1154.41C713.813,1084.1 779.494,1028.36 859.678,1028.36C921.425,1028.36 974.571,1061.42 998.004,1108.72C1061.82,1109.03 1113.54,1160.94 1113.54,1224.83C1113.54,1288.91 1061.51,1340.94 997.428,1340.94C993.876,1340.94 724.7,1340.94 724.7,1340.94L724.7,1340.88C674.311,1339.01 633.975,1297.52 633.975,1246.68C633.975,1201.29 666.122,1163.35 708.871,1154.41Z" style="fill:rgb(165,187,209);"/>
        </g>
        <g id="Dro" transform="matrix(0.812493,0,0,1.21077,162.918,-281.008)">
            <path d="M777.33,1372.79C777.33,1372.79 740.717,1394.11 740.717,1421.45C740.717,1435.01 757.122,1446.02 777.33,1446.02C797.537,1446.02 813.943,1435.01 813.943,1421.45C813.943,1394.11 777.33,1372.79 777.33,1372.79Z" style="fill:rgb(103,135,171);"/>
        </g>
        <g id="Dro1" serif:id="Dro" transform="matrix(0.812493,0,0,1.21077,321.444,-281.008)">
            <path d="M777.33,1372.79C777.33,1372.79 740.717,1394.11 740.717,1421.45C740.717,1435.01 757.122,1446.02 777.33,1446.02C797.537,1446.02 813.943,1435.01 813.943,1421.45C813.943,1394.11 777.33,1372.79 777.33,1372.79Z" style="fill:rgb(103,135,171);"/>
        </g>
        <g id="Drop" transform="matrix(0.812493,0,0,1.21077,242.181,-180.711)">
            <path d="M777.33,1372.79C777.33,1372.79 740.717,1394.11 740.717,1421.45C740.717,1435.01 757.122,1446.02 777.33,1446.02C797.537,1446.02 813.943,1435.01 813.943,1421.45C813.943,1394.11 777.33,1372.79 777.33,1372.79Z" style="fill:rgb(103,135,171);"/>
        </g>
    </g>
</svg>
