<?xml version="1.0" encoding="UTF-8" standalone="no"?>
<!DOCTYPE svg PUBLIC "-//W3C//DTD SVG 1.1//EN" "http://www.w3.org/Graphics/SVG/1.1/DTD/svg11.dtd">
<svg width="100%" height="100%" viewBox="0 0 500 500" version="1.1" xmlns="http://www.w3.org/2000/svg" xmlns:xlink="http://www.w3.org/1999/xlink" xml:space="preserve" xmlns:serif="http://www.serif.com/" style="fill-rule:evenodd;clip-rule:evenodd;stroke-linejoin:round;stroke-miterlimit:1.41421;">
    <g id="CupBronze" transform="matrix(2.4716,0,0,2.4716,-2492.42,-1116.65)">
        <g transform="matrix(0.933477,0,0,0.933477,71.3106,36.9186)">
            <rect x="1100.82" y="552.445" width="24.779" height="69.417" style="fill:rgb(230,181,138);"/>
            <clipPath id="_clip1">
                <rect x="1100.82" y="552.445" width="24.779" height="69.417"/>
            </clipPath>
            <g clip-path="url(#_clip1)">
                <g transform="matrix(1,0,0,1,5.95924,-1.7122)">
                    <rect x="1107.65" y="441.391" width="87.37" height="182.29" style="fill:rgb(197,119,71);"/>
                </g>
            </g>
        </g>
        <g transform="matrix(0.816341,0,0,0.689691,202.484,191.001)">
            <rect x="1046" y="596.223" width="132.518" height="64.013" style="fill:rgb(83,101,125);"/>
        </g>
        <g transform="matrix(0.933477,0,0,-0.121088,72.1976,677.305)">
            <rect x="1046" y="596.223" width="132.518" height="64.013" style="fill:rgb(131,147,167);"/>
        </g>
        <g transform="matrix(0.933477,0,0,0.933477,85.2806,34.3116)">
            <path d="M1087.71,472.564C1098.75,472.774 1108.7,482.211 1108.91,493.768C1108.99,505.161 1108.99,516.555 1108.91,527.948C1108.71,539.043 1099.12,548.936 1087.71,549.152C1076.48,549.224 1065.25,549.189 1054.02,549.153C1030.15,548.927 1008.39,528.522 1008.15,503.279C1008.13,497.677 1007.53,492.121 1009.36,486.907C1012.26,478.695 1020.45,472.733 1029.35,472.564C1048.8,472.439 1068.26,472.439 1087.71,472.564ZM1029.64,481.896C1023.36,481.936 1017.69,487.358 1017.48,493.727C1017.35,501.171 1017.2,508.631 1019.64,515.43C1024.67,529.433 1038.66,539.576 1053.84,539.817C1065.09,539.924 1076.34,539.891 1087.59,539.819C1093.84,539.701 1099.46,534.305 1099.58,527.831C1099.65,516.516 1099.65,505.2 1099.58,493.885C1099.46,487.624 1094.07,482.02 1087.59,481.897C1068.28,481.773 1048.96,481.896 1029.64,481.896Z" style="fill:rgb(212,136,85);fill-rule:nonzero;"/>
        </g>
        <g transform="matrix(-0.933477,0,0,0.933477,2133.95,34.3116)">
            <path d="M1029.35,472.564C1018.28,472.774 1008.36,482.175 1008.15,493.768C1008.09,502.148 1008.03,510.564 1010.76,518.319C1017,536.044 1034.83,548.971 1054.02,549.153C1065.25,549.189 1076.48,549.224 1087.71,549.152C1098.78,548.942 1108.7,539.519 1108.91,527.948C1108.99,516.555 1108.99,505.161 1108.91,493.768C1108.71,482.724 1099.12,472.781 1087.71,472.564C1068.26,472.439 1048.8,472.439 1029.35,472.564ZM1087.42,481.896C1093.76,481.937 1099.46,487.48 1099.58,493.885C1099.65,505.2 1099.65,516.516 1099.58,527.831C1099.46,534.087 1094.07,539.696 1087.59,539.819C1076.34,539.891 1065.09,539.924 1053.84,539.817C1034.95,539.517 1017.78,523.291 1017.48,503.46C1017.42,496.523 1016.93,488.975 1021.68,484.859C1023.87,482.966 1026.74,481.896 1029.64,481.896C1048.9,481.896 1068.16,481.896 1087.42,481.896Z" style="fill:rgb(212,136,85);fill-rule:nonzero;"/>
        </g>
        <g transform="matrix(0.933477,0,0,0.933477,52.7754,22.1097)">
            <path d="M1187.24,472.943L1078.9,472.943L1078.9,525.707C1078.9,555.603 1103.17,579.874 1133.07,579.874C1162.96,579.874 1187.24,555.603 1187.24,525.707L1187.24,472.943Z" style="fill:rgb(230,181,138);"/>
            <clipPath id="_clip2">
                <path d="M1187.24,472.943L1078.9,472.943L1078.9,525.707C1078.9,555.603 1103.17,579.874 1133.07,579.874C1162.96,579.874 1187.24,555.603 1187.24,525.707L1187.24,472.943Z"/>
            </clipPath>
            <g clip-path="url(#_clip2)">
                <g transform="matrix(1,0,0,0.708542,25.8153,142.799)">
                    <rect x="1107.65" y="441.391" width="87.37" height="182.29" style="fill:rgb(212,136,85);"/>
                </g>
            </g>
        </g>
        <g transform="matrix(0.4258,0,0,0.440168,807.358,360.393)">
            <path d="M835.302,229.736C835.302,227.234 833.202,225.203 830.616,225.203L589.107,225.203C586.52,225.203 584.421,227.234 584.421,229.736L584.421,238.802C584.421,241.304 586.52,243.335 589.107,243.335L830.616,243.335C833.202,243.335 835.302,241.304 835.302,238.802L835.302,229.736Z" style="fill:rgb(230,181,138);"/>
        </g>
        <g id="Star" transform="matrix(0.933477,0,0,0.933477,69.7657,26.8516)">
            <path d="M1089.65,475.306L1094.71,488.985L1108.39,494.047L1094.71,499.109L1089.65,512.789L1084.58,499.109L1070.9,494.047L1084.58,488.985L1089.65,475.306Z" style="fill:white;"/>
        </g>
        <g id="Star1" serif:id="Star" transform="matrix(0.552454,0,0,0.552454,472.447,246.623)">
            <path d="M1089.65,475.306L1094.71,488.985L1108.39,494.047L1094.71,499.109L1089.65,512.789L1084.58,499.109L1070.9,494.047L1084.58,488.985L1089.65,475.306Z" style="fill:white;"/>
        </g>
        <g transform="matrix(0.933477,0,0,0.933477,73.8149,36.9186)">
            <rect x="1075.4" y="617.954" width="72.515" height="23.206" style="fill:rgb(230,181,138);"/>
            <clipPath id="_clip3">
                <rect x="1075.4" y="617.954" width="72.515" height="23.206"/>
            </clipPath>
            <g clip-path="url(#_clip3)">
                <g transform="matrix(1,0,0,0.264804,3.27643,492.455)">
                    <rect x="1107.65" y="441.391" width="87.37" height="182.29" style="fill:rgb(197,119,71);"/>
                </g>
            </g>
        </g>
    </g>
</svg>
