<?xml version="1.0" encoding="UTF-8" standalone="no"?>
<!DOCTYPE svg PUBLIC "-//W3C//DTD SVG 1.1//EN" "http://www.w3.org/Graphics/SVG/1.1/DTD/svg11.dtd">
<svg width="100%" height="100%" viewBox="0 0 500 500" version="1.1" xmlns="http://www.w3.org/2000/svg" xmlns:xlink="http://www.w3.org/1999/xlink" xml:space="preserve" xmlns:serif="http://www.serif.com/" style="fill-rule:evenodd;clip-rule:evenodd;stroke-linejoin:round;stroke-miterlimit:1.41421;">
    <g id="Geography" transform="matrix(1.51285,0,0,1.51285,-322.342,-767.949)">
        <g id="Shadow" transform="matrix(1.12072,0.795276,-0.412876,0.9109,260.971,-168.378)">
            <path d="M403.222,727.763C423.669,659.444 428.833,591.049 417.909,522.575L296.267,522.575L330.027,622.351L344.681,626.943C335.913,649.231 328.153,662.375 315.53,674.322L320.431,702.471L298.933,727.863L403.222,727.763Z" style="fill:url(#_Linear1);"/>
        </g>
        <g id="Icon" transform="matrix(0.842922,0,0,0.842922,-290.089,162.393)">
            <g transform="matrix(0.627169,-0.627169,0.799894,0.799894,-150.006,509.048)">
                <path d="M684.239,471.156C684.239,470.059 683.102,469.167 681.702,469.167C680.303,469.167 679.166,470.059 679.166,471.156L679.166,668.652C679.166,669.75 680.303,670.641 681.702,670.641C683.102,670.641 684.239,669.75 684.239,668.652L684.239,471.156Z" style="fill:white;"/>
                <clipPath id="_clip2">
                    <path d="M684.239,471.156C684.239,470.059 683.102,469.167 681.702,469.167C680.303,469.167 679.166,470.059 679.166,471.156L679.166,668.652C679.166,669.75 680.303,670.641 681.702,670.641C683.102,670.641 684.239,669.75 684.239,668.652L684.239,471.156Z"/>
                </clipPath>
                <g clip-path="url(#_clip2)">
                    <g transform="matrix(0.790194,0.670825,-0.261278,0.221809,501.404,295.305)">
                        <rect x="327.702" y="412.386" width="161.266" height="235.978" style="fill:rgb(43,51,63);fill-opacity:0.25;"/>
                    </g>
                </g>
            </g>
            <g transform="matrix(0.948771,0,0,0.948771,44.7844,25.0176)">
                <circle cx="734.474" cy="529.894" r="95.946" style="fill:rgb(117,221,235);"/>
                <clipPath id="_clip3">
                    <circle cx="734.474" cy="529.894" r="95.946"/>
                </clipPath>
                <g clip-path="url(#_clip3)">
                    <g transform="matrix(1.18635,0,0,1.18635,340.631,-106.807)">
                        <path d="M289.132,459.497C294.317,461.526 310.445,464.03 315.041,473.156C319.637,482.283 311.127,486.904 300.536,493.904C289.944,500.905 295.595,505.507 287.764,510.924C279.932,516.341 270.939,518.48 274.49,523.672C278.041,528.864 277.817,530.509 288.986,532.294C300.154,534.078 315.031,533.044 319.255,547.409C323.48,561.775 309.219,577.33 309.083,586.568C308.947,595.805 313.422,601.775 305.649,600.355C297.876,598.935 291.826,582.956 285.212,572.586C278.598,562.216 274.461,556.911 275.26,549.052C276.06,541.193 276.745,534.928 268.585,530.76C260.426,526.592 245.307,533.883 247.189,519.261C249.071,504.639 283.946,457.468 289.132,459.497Z" style="fill:white;"/>
                    </g>
                    <g transform="matrix(1.30655,0,0,1.29903,293.04,-166.888)">
                        <path d="M373.296,465.239C372.516,470.418 377.526,471.402 378.548,477.044C379.57,482.686 377.45,481.427 374.593,485.132C371.736,488.837 366.028,488.511 363.037,490.701C360.045,492.891 353.242,497.203 357.287,501.365C361.333,505.526 368.948,504.893 373.351,500.732C377.755,496.572 380.559,495.227 384.626,497.726C388.694,500.224 386.213,501.977 393.052,500.342C399.891,498.708 408.302,501.144 410.574,507.168C412.846,513.192 412.476,515.731 401.974,513.637C391.473,511.542 388.3,510.397 380.528,511.005C372.756,511.612 367.914,506.465 362.01,511.428C356.107,516.391 350.628,517.92 351.159,526.778C351.69,535.636 345.832,538.88 353.481,543.307C361.13,547.733 364.719,544.941 372.417,548.639C380.115,552.336 381.602,545.251 382.304,559.695C383.006,574.138 372.478,577.538 386.588,583.91C400.698,590.281 408.552,588.402 408.552,588.402C408.552,588.402 426.291,552.414 426.128,548.837C425.965,545.26 421.102,516.386 421.102,516.386C421.102,516.386 415.176,495.861 413.549,493.01C411.922,490.16 393.467,469.674 393.467,469.674C393.467,469.674 374.076,460.06 373.296,465.239Z" style="fill:white;"/>
                    </g>
                    <g transform="matrix(0.991171,0,0,0.868477,409.685,66.2534)">
                        <rect x="327.702" y="412.386" width="161.266" height="235.978" style="fill:rgb(33,66,115);fill-opacity:0.235294;"/>
                    </g>
                </g>
            </g>
            <g transform="matrix(0.507318,0.507318,-0.50351,0.50351,632.38,-18.0757)">
                <path d="M494.523,435.762C494.523,519.18 562.147,586.804 645.565,586.804C728.983,586.804 796.606,519.18 796.606,435.762L786.047,435.762C786.047,513.348 723.151,576.244 645.565,576.244C567.979,576.244 505.083,513.348 505.083,435.762L494.523,435.762Z" style="fill:white;"/>
                <clipPath id="_clip4">
                    <path d="M494.523,435.762C494.523,519.18 562.147,586.804 645.565,586.804C728.983,586.804 796.606,519.18 796.606,435.762L786.047,435.762C786.047,513.348 723.151,576.244 645.565,576.244C567.979,576.244 505.083,513.348 505.083,435.762L494.523,435.762Z"/>
                </clipPath>
                <g clip-path="url(#_clip4)">
                    <g transform="matrix(0.976874,-0.98426,0.323004,0.325447,245.905,675.833)">
                        <rect x="327.702" y="412.386" width="161.266" height="235.978" style="fill:rgb(43,51,63);fill-opacity:0.25;"/>
                    </g>
                </g>
            </g>
            <g transform="matrix(0.327214,0,0,1,500.351,-3.86848)">
                <rect x="726.571" y="636.069" width="21.622" height="38.196" style="fill:white;"/>
                <clipPath id="_clip5">
                    <rect x="726.571" y="636.069" width="21.622" height="38.196"/>
                </clipPath>
                <g clip-path="url(#_clip5)">
                    <g transform="matrix(3.02912,0,0,0.271936,-255.208,487.01)">
                        <rect x="327.702" y="412.386" width="161.266" height="235.978" style="fill:rgb(43,51,63);fill-opacity:0.25;"/>
                    </g>
                </g>
            </g>
            <g transform="matrix(0.666603,0,0,1.25687,249.966,-197.646)">
                <path d="M783.909,676.285C783.909,675.291 782.387,674.484 780.513,674.484L694.528,674.484C692.654,674.484 691.132,675.291 691.132,676.285L691.132,687.287C691.132,688.281 692.654,689.088 694.528,689.088L780.513,689.088C782.387,689.088 783.909,688.281 783.909,687.287L783.909,676.285Z" style="fill:rgb(254,186,17);"/>
                <clipPath id="_clip6">
                    <path d="M783.909,676.285C783.909,675.291 782.387,674.484 780.513,674.484L694.528,674.484C692.654,674.484 691.132,675.291 691.132,676.285L691.132,687.287C691.132,688.281 692.654,689.088 694.528,689.088L780.513,689.088C782.387,689.088 783.909,688.281 783.909,687.287L783.909,676.285Z"/>
                </clipPath>
                <g clip-path="url(#_clip6)">
                    <g transform="matrix(2.78554,-2.10641e-16,0,0.0821687,-175.253,633.047)">
                        <rect x="327.702" y="412.386" width="161.266" height="235.978" style="fill:rgb(253,151,17);"/>
                    </g>
                </g>
            </g>
            <g transform="matrix(1.04949,0,0,1.23371,-32.4176,-172.985)">
                <path d="M783.909,678.135C783.909,676.12 781.986,674.484 779.617,674.484L695.424,674.484C693.055,674.484 691.132,676.12 691.132,678.135L691.132,685.437C691.132,687.452 693.055,689.088 695.424,689.088L779.617,689.088C781.986,689.088 783.909,687.452 783.909,685.437L783.909,678.135Z" style="fill:rgb(241,103,123);"/>
                <clipPath id="_clip7">
                    <path d="M783.909,678.135C783.909,676.12 781.986,674.484 779.617,674.484L695.424,674.484C693.055,674.484 691.132,676.12 691.132,678.135L691.132,685.437C691.132,687.452 693.055,689.088 695.424,689.088L779.617,689.088C781.986,689.088 783.909,687.452 783.909,685.437L783.909,678.135Z"/>
                </clipPath>
                <g clip-path="url(#_clip7)">
                    <g transform="matrix(1.52857,-1.13477e-16,0,0.223318,236.636,556.964)">
                        <rect x="327.702" y="412.386" width="161.266" height="235.978" style="fill:rgb(217,79,95);"/>
                    </g>
                </g>
            </g>
        </g>
    </g>
    <defs>
        <linearGradient id="_Linear1" x1="0" y1="0" x2="1" y2="0" gradientUnits="userSpaceOnUse" gradientTransform="matrix(55.9781,-4.78226,-7.31263,77.424,342.032,592.745)"><stop offset="0" style="stop-color:black;stop-opacity:0.192157"/><stop offset="1" style="stop-color:black;stop-opacity:0"/></linearGradient>
    </defs>
</svg>
