<?xml version="1.0" encoding="UTF-8" standalone="no"?>
<!DOCTYPE svg PUBLIC "-//W3C//DTD SVG 1.1//EN" "http://www.w3.org/Graphics/SVG/1.1/DTD/svg11.dtd">
<svg width="100%" height="100%" viewBox="0 0 500 500" version="1.1" xmlns="http://www.w3.org/2000/svg" xmlns:xlink="http://www.w3.org/1999/xlink" xml:space="preserve" xmlns:serif="http://www.serif.com/" style="fill-rule:evenodd;clip-rule:evenodd;stroke-linejoin:round;stroke-miterlimit:1.41421;">
    <g id="Girl4" transform="matrix(2.12089,0,0,2.12089,-157.685,-116.18)">
        <path d="M304.741,172.654C304.741,110.554 254.323,60.137 192.224,60.137C130.124,60.137 79.707,110.554 79.707,172.654C79.707,234.754 130.124,285.171 192.224,285.171C254.323,285.171 304.741,234.754 304.741,172.654Z" style="fill:rgb(101,113,129);fill-opacity:0;"/>
        <clipPath id="_clip1">
            <path d="M304.741,172.654C304.741,110.554 254.323,60.137 192.224,60.137C130.124,60.137 79.707,110.554 79.707,172.654C79.707,234.754 130.124,285.171 192.224,285.171C254.323,285.171 304.741,234.754 304.741,172.654Z"/>
        </clipPath>
        <g clip-path="url(#_clip1)">
            <path id="CircleBackground" d="M304.741,172.654C304.741,110.554 254.323,60.137 192.224,60.137C130.124,60.137 79.707,110.554 79.707,172.654C79.707,234.754 130.124,285.171 192.224,285.171C254.323,285.171 304.741,234.754 304.741,172.654Z" style="fill:rgb(101,113,129);"/>
            <g id="Avatar" transform="matrix(0.773678,0,0,0.773678,-27.7319,-323.772)">
                <path d="M225.219,726.815C225.219,726.815 289.459,806.326 330.434,758.715C371.41,711.103 347.435,682.54 347.435,682.54L202.135,694.443L225.219,726.815Z" style="fill:rgb(70,41,66);"/>
                <g transform="matrix(0.73724,0,0,1.84194,-529.036,-1093.72)">
                    <path d="M1126.16,976.271L1091.41,976.271C1096.14,987.762 1096.47,999.057 1091.41,1010.11L1126.16,1010.11C1122.54,998.744 1123.18,987.48 1126.16,976.271Z" style="fill:rgb(251,212,199);"/>
                    <clipPath id="_clip2">
                        <path d="M1126.16,976.271L1091.41,976.271C1096.14,987.762 1096.47,999.057 1091.41,1010.11L1126.16,1010.11C1122.54,998.744 1123.18,987.48 1126.16,976.271Z"/>
                    </clipPath>
                    <g clip-path="url(#_clip2)">
                        <g transform="matrix(1.60009,0,0,0.692822,-638.052,305.077)">
                            <path d="M1113.09,863.49C1183,863.49 1170.69,908.887 1176.33,943.825C1181.92,978.508 1139.76,987.644 1113.09,987.644C1086.42,987.644 1045.53,978.379 1049.75,943.66C1054.01,908.542 1043.18,863.49 1113.09,863.49Z" style="fill:rgb(234,183,166);"/>
                        </g>
                    </g>
                </g>
                <g transform="matrix(0.680369,-0.150748,0.0729064,0.657154,-577.003,25.99)">
                    <path d="M1034.64,1178.84C1045.3,1184.19 1047.84,1190.31 1047.71,1203.72C1047.58,1217.53 1044.66,1222.57 1035.05,1224.81C1027,1226.69 1008.19,1219.15 1007.04,1201.46C1005.77,1181.84 1023.8,1173.39 1034.64,1178.84Z" style="fill:rgb(242,198,153);"/>
                </g>
                <g transform="matrix(-0.680369,-0.150748,-0.0729064,0.657154,1147.25,25.99)">
                    <path d="M1034.64,1178.84C1045.3,1184.19 1047.84,1190.31 1047.71,1203.72C1047.58,1217.53 1044.66,1222.57 1035.05,1224.81C1027,1226.69 1008.19,1219.15 1007.04,1201.46C1005.77,1181.84 1023.8,1173.39 1034.64,1178.84Z" style="fill:rgb(242,198,153);"/>
                </g>
                <g transform="matrix(1.17965,0,0,1.27613,-1026.09,-540.421)">
                    <path d="M1113.09,863.49C1183,863.49 1170.69,908.887 1176.33,943.825C1181.92,978.508 1139.76,987.644 1113.09,987.644C1086.42,987.644 1045.53,978.379 1049.75,943.66C1054.01,908.542 1043.18,863.49 1113.09,863.49Z" style="fill:rgb(234,183,166);"/>
                </g>
                <g transform="matrix(1.17965,0,0,1.19201,-1026.09,-467.776)">
                    <path d="M1113.09,863.49C1183,863.49 1170.69,908.887 1176.33,943.825C1181.92,978.508 1139.76,987.644 1113.09,987.644C1086.42,987.644 1045.53,978.379 1049.75,943.66C1054.01,908.542 1043.18,863.49 1113.09,863.49Z" style="fill:rgb(251,212,199);"/>
                </g>
                <g>
                    <path d="M288.906,747.911C298.979,747.911 299.537,740.646 299.537,740.646C299.537,740.646 349.13,746.806 353.802,786.426C357.691,819.403 308.239,812.334 291.549,809.037C290.566,809.231 289.688,809.217 288.906,809.018C288.123,809.217 287.245,809.231 286.263,809.037C269.572,812.334 220.121,819.403 224.009,786.426C228.682,746.806 278.274,740.646 278.274,740.646C278.274,740.646 278.833,747.911 288.906,747.911Z" style="fill:rgb(237,237,151);"/>
                    <clipPath id="_clip3">
                        <path d="M288.906,747.911C298.979,747.911 299.537,740.646 299.537,740.646C299.537,740.646 349.13,746.806 353.802,786.426C357.691,819.403 308.239,812.334 291.549,809.037C290.566,809.231 289.688,809.217 288.906,809.018C288.123,809.217 287.245,809.231 286.263,809.037C269.572,812.334 220.121,819.403 224.009,786.426C228.682,746.806 278.274,740.646 278.274,740.646C278.274,740.646 278.833,747.911 288.906,747.911Z"/>
                    </clipPath>
                    <g clip-path="url(#_clip3)">
                        <path d="M375.436,714.225L285.134,716.23C289.344,751.968 295.563,782.49 291.058,811.182L375.436,856.999L375.436,714.225Z" style="fill:rgb(221,221,135);"/>
                        <g transform="matrix(0.941638,0,0,0.941638,-315.763,43.5223)">
                            <ellipse cx="641.702" cy="744.517" rx="28.184" ry="13.782" style="fill:rgb(251,212,199);"/>
                        </g>
                    </g>
                </g>
                <path d="M191.911,599.15C230.844,501.263 380.683,530.999 397.375,612.5L379.201,594.413C394.611,624.712 400.922,652.624 399.616,678.537L382.871,644.704C391.879,691.035 388.499,729.464 364.515,754.748L358.442,714.73C353.108,740.958 340.338,756.176 325.641,768.54C325.641,768.54 355.171,662.63 322.492,606.062C316.155,643.801 295.12,666.22 295.12,666.22C295.12,666.22 296.037,656.205 291.179,633.415C282.704,670.416 264.542,680.987 264.542,680.987C264.542,680.987 264.231,635.427 260.063,615.361C261.287,652.275 252.64,681.264 243.586,701.564L227.204,671.219C235.403,702.579 254.57,771.74 254.57,771.74C254.57,771.74 232.522,752.94 221.56,732.993L223.268,767.666C223.268,767.666 190.76,732.121 184.24,674.684L164.275,694.856C171.412,661 179.098,627.661 191.911,599.15Z" style="fill:rgb(97,57,91);"/>
            </g>
        </g>
    </g>
</svg>
