<?xml version="1.0" encoding="UTF-8" standalone="no"?>
<!DOCTYPE svg PUBLIC "-//W3C//DTD SVG 1.1//EN" "http://www.w3.org/Graphics/SVG/1.1/DTD/svg11.dtd">
<svg width="100%" height="100%" viewBox="0 0 500 500" version="1.1" xmlns="http://www.w3.org/2000/svg" xmlns:xlink="http://www.w3.org/1999/xlink" xml:space="preserve" xmlns:serif="http://www.serif.com/" style="fill-rule:evenodd;clip-rule:evenodd;stroke-linejoin:round;stroke-miterlimit:1.41421;">
    <g id="Girl1" transform="matrix(2.12089,0,0,2.12089,-157.685,-116.18)">
        <path d="M304.741,172.654C304.741,110.554 254.323,60.137 192.224,60.137C130.124,60.137 79.707,110.554 79.707,172.654C79.707,234.754 130.124,285.171 192.224,285.171C254.323,285.171 304.741,234.754 304.741,172.654Z" style="fill:rgb(101,113,129);fill-opacity:0;"/>
        <clipPath id="_clip1">
            <path d="M304.741,172.654C304.741,110.554 254.323,60.137 192.224,60.137C130.124,60.137 79.707,110.554 79.707,172.654C79.707,234.754 130.124,285.171 192.224,285.171C254.323,285.171 304.741,234.754 304.741,172.654Z"/>
        </clipPath>
        <g clip-path="url(#_clip1)">
            <path id="CircleBackground" d="M304.741,172.654C304.741,110.554 254.323,60.137 192.224,60.137C130.124,60.137 79.707,110.554 79.707,172.654C79.707,234.754 130.124,285.171 192.224,285.171C254.323,285.171 304.741,234.754 304.741,172.654Z" style="fill:rgb(101,113,129);"/>
            <g id="Avatar" transform="matrix(0.750114,0,0,0.750114,-27.8523,-312.459)">
                <g transform="matrix(0.73724,0,0,1.84194,-524.05,-1093.72)">
                    <path d="M1126.16,976.271L1091.41,976.271C1096.14,987.762 1096.47,999.057 1091.41,1010.11L1126.16,1010.11C1122.54,998.744 1123.18,987.48 1126.16,976.271Z" style="fill:rgb(255,222,189);"/>
                    <clipPath id="_clip2">
                        <path d="M1126.16,976.271L1091.41,976.271C1096.14,987.762 1096.47,999.057 1091.41,1010.11L1126.16,1010.11C1122.54,998.744 1123.18,987.48 1126.16,976.271Z"/>
                    </clipPath>
                    <g clip-path="url(#_clip2)">
                        <g transform="matrix(1.60009,0,0,0.692822,-638.052,305.077)">
                            <path d="M1113.09,863.49C1183,863.49 1170.69,908.887 1176.33,943.825C1181.92,978.508 1139.76,987.644 1113.09,987.644C1086.42,987.644 1045.53,978.379 1049.75,943.66C1054.01,908.542 1043.18,863.49 1113.09,863.49Z" style="fill:rgb(240,203,167);"/>
                        </g>
                    </g>
                </g>
                <g transform="matrix(1,0,0,1,8.26899,0)">
                    <g transform="matrix(0.680369,-0.150748,0.0729064,0.657154,-577.003,25.99)">
                        <path d="M1034.64,1178.84C1045.3,1184.19 1047.84,1190.31 1047.71,1203.72C1047.58,1217.53 1044.66,1222.57 1035.05,1224.81C1027,1226.69 1008.19,1219.15 1007.04,1201.46C1005.77,1181.84 1023.8,1173.39 1034.64,1178.84Z" style="fill:rgb(255,222,189);"/>
                    </g>
                    <g transform="matrix(-0.680369,-0.150748,-0.0729064,0.657154,1147.25,25.99)">
                        <path d="M1034.64,1178.84C1045.3,1184.19 1047.84,1190.31 1047.71,1203.72C1047.58,1217.53 1044.66,1222.57 1035.05,1224.81C1027,1226.69 1008.19,1219.15 1007.04,1201.46C1005.77,1181.84 1023.8,1173.39 1034.64,1178.84Z" style="fill:rgb(255,222,189);"/>
                    </g>
                </g>
                <g transform="matrix(1.17965,0,0,1.27613,-1019.72,-540.421)">
                    <path d="M1113.09,863.49C1183,863.49 1170.69,908.887 1176.33,943.825C1181.92,978.508 1139.76,987.644 1113.09,987.644C1086.42,987.644 1045.53,978.379 1049.75,943.66C1054.01,908.542 1043.18,863.49 1113.09,863.49Z" style="fill:rgb(240,203,167);"/>
                </g>
                <g transform="matrix(1.17965,0,0,1.19201,-1019.72,-467.776)">
                    <path d="M1113.09,863.49C1183,863.49 1170.69,908.887 1176.33,943.825C1181.92,978.508 1139.76,987.644 1113.09,987.644C1086.42,987.644 1045.53,978.379 1049.75,943.66C1054.01,908.542 1043.18,863.49 1113.09,863.49Z" style="fill:rgb(255,222,189);"/>
                    <clipPath id="_clip3">
                        <path d="M1113.09,863.49C1183,863.49 1170.69,908.887 1176.33,943.825C1181.92,978.508 1139.76,987.644 1113.09,987.644C1086.42,987.644 1045.53,978.379 1049.75,943.66C1054.01,908.542 1043.18,863.49 1113.09,863.49Z"/>
                    </clipPath>
                    <g clip-path="url(#_clip3)">
                        <g transform="matrix(1.12034,0,0,1.11233,-350.373,-80.9079)">
                            <path d="M1332.58,924.793L1235.53,924.793C1235.53,924.793 1218.95,852.605 1306.32,852.605C1393.68,852.605 1377.09,924.738 1377.1,924.793L1339.53,924.793L1333.93,892.386L1332.58,924.793Z" style="fill:rgb(240,203,167);"/>
                        </g>
                    </g>
                </g>
                <g transform="matrix(0.991924,0,0,1,6.81732,0)">
                    <g>
                        <path d="M278.771,740.646L299.85,740.646C299.85,740.646 342.062,746.828 348.366,793.732C352.79,826.643 224.807,825.484 229.181,792.567C235.217,747.148 278.771,740.646 278.771,740.646Z" style="fill:rgb(228,124,133);"/>
                        <clipPath id="_clip4">
                            <path d="M278.771,740.646L299.85,740.646C299.85,740.646 342.062,746.828 348.366,793.732C352.79,826.643 224.807,825.484 229.181,792.567C235.217,747.148 278.771,740.646 278.771,740.646Z"/>
                        </clipPath>
                        <g clip-path="url(#_clip4)">
                            <path d="M375.436,714.225L285.134,716.23C289.344,751.968 295.563,782.49 291.058,811.182L375.436,856.999L375.436,714.225Z" style="fill:rgb(219,100,112);"/>
                            <g transform="matrix(0.941638,0,0,1.07593,-315.62,-64.2647)">
                                <ellipse cx="641.702" cy="744.517" rx="28.184" ry="13.782" style="fill:rgb(255,222,189);"/>
                            </g>
                        </g>
                    </g>
                </g>
                <g transform="matrix(1.21185,0,0,1.3259,-1289.67,-577.042)">
                    <path d="M1332.58,924.793L1235.53,924.793C1235.53,924.793 1218.95,852.605 1306.32,852.605C1393.68,852.605 1377.09,924.738 1377.1,924.793L1339.53,924.793L1333.93,892.386L1332.58,924.793Z" style="fill:rgb(45,43,42);"/>
                </g>
                <g transform="matrix(1.71768,0,0,1.71768,97.4388,381.73)">
                    <circle cx="114.993" cy="102.484" r="20.629" style="fill:rgb(45,43,42);"/>
                </g>
                <g transform="matrix(1,0,0,1,6.1811,0)">
                    <g transform="matrix(1.25196,0.591798,0,0.920748,-63.2462,-82.3742)">
                        <rect x="218.42" y="640.725" width="12.541" height="103.043" style="fill:rgb(45,43,42);"/>
                    </g>
                    <g transform="matrix(-1.25196,0.591798,0,0.920748,637.664,-82.3742)">
                        <rect x="218.42" y="640.725" width="12.541" height="103.043" style="fill:rgb(45,43,42);"/>
                    </g>
                </g>
            </g>
        </g>
    </g>
</svg>
