<?xml version="1.0" encoding="UTF-8" standalone="no"?>
<!DOCTYPE svg PUBLIC "-//W3C//DTD SVG 1.1//EN" "http://www.w3.org/Graphics/SVG/1.1/DTD/svg11.dtd">
<svg width="100%" height="100%" viewBox="0 0 500 500" version="1.1" xmlns="http://www.w3.org/2000/svg" xmlns:xlink="http://www.w3.org/1999/xlink" xml:space="preserve" xmlns:serif="http://www.serif.com/" style="fill-rule:evenodd;clip-rule:evenodd;stroke-linejoin:round;stroke-miterlimit:1.41421;">
    <g id="Girl3" transform="matrix(2.12089,0,0,2.12089,-157.685,-116.18)">
        <path d="M304.741,172.654C304.741,110.554 254.323,60.137 192.224,60.137C130.124,60.137 79.707,110.554 79.707,172.654C79.707,234.754 130.124,285.171 192.224,285.171C254.323,285.171 304.741,234.754 304.741,172.654Z" style="fill:rgb(101,113,129);fill-opacity:0;"/>
        <clipPath id="_clip1">
            <path d="M304.741,172.654C304.741,110.554 254.323,60.137 192.224,60.137C130.124,60.137 79.707,110.554 79.707,172.654C79.707,234.754 130.124,285.171 192.224,285.171C254.323,285.171 304.741,234.754 304.741,172.654Z"/>
        </clipPath>
        <g clip-path="url(#_clip1)">
            <path id="CircleBackground" d="M304.741,172.654C304.741,110.554 254.323,60.137 192.224,60.137C130.124,60.137 79.707,110.554 79.707,172.654C79.707,234.754 130.124,285.171 192.224,285.171C254.323,285.171 304.741,234.754 304.741,172.654Z" style="fill:rgb(101,113,129);"/>
            <g id="Avatar" transform="matrix(0.750114,0,0,0.750114,-1625.4,-1042.57)">
                <g transform="matrix(1,0,0,1,11.4354,75.2944)">
                    <path d="M2365.03,1532.82C2365.03,1532.82 2325.68,1506.66 2309.66,1547.7C2299.02,1574.97 2311.44,1648.04 2317.53,1687.72C2320.6,1707.75 2323.63,1709.95 2322.51,1715.86C2376.75,1731.47 2321.33,1563.15 2365.26,1556.88C2390.44,1520.49 2365.03,1532.82 2365.03,1532.82Z" style="fill:rgb(104,70,63);"/>
                </g>
                <g transform="matrix(1,0,0,1,5.75978,9.89081)">
                    <circle cx="2348.18" cy="1652.22" r="5.584" style="fill:rgb(236,139,139);"/>
                </g>
                <g transform="matrix(1,0,0,1,159.509,9.89081)">
                    <circle cx="2348.18" cy="1652.22" r="5.584" style="fill:rgb(236,139,139);"/>
                </g>
                <g transform="matrix(0.767724,0,0,0.767724,2060.18,1244.15)">
                    <path d="M387.325,534.477C414.737,581.169 585.861,562.258 595.51,508.865C607.081,444.84 613.929,335.33 459.549,342.903C337.434,348.893 359.913,487.786 387.325,534.477Z" style="fill:rgb(104,70,63);"/>
                </g>
                <g transform="matrix(1.2266,0,0,1.17745,836.751,905.555)">
                    <path d="M1293.53,516.174C1228.01,511.828 1217.87,561.62 1233.05,613.237C1276.72,511.514 1365.38,618.874 1365.38,618.874C1365.38,618.874 1404.66,523.545 1293.53,516.174Z" style="fill:rgb(104,70,63);"/>
                </g>
                <g transform="matrix(0.73724,0,0,1.84194,1612.87,-117.027)">
                    <path d="M1126.16,976.271L1091.41,976.271C1096.14,987.762 1096.47,999.057 1091.41,1010.11L1126.16,1010.11C1122.54,998.744 1123.18,987.48 1126.16,976.271Z" style="fill:rgb(255,222,189);"/>
                    <clipPath id="_clip2">
                        <path d="M1126.16,976.271L1091.41,976.271C1096.14,987.762 1096.47,999.057 1091.41,1010.11L1126.16,1010.11C1122.54,998.744 1123.18,987.48 1126.16,976.271Z"/>
                    </clipPath>
                    <g clip-path="url(#_clip2)">
                        <g transform="matrix(1.60009,0,0,0.692822,-638.052,305.077)">
                            <path d="M1113.09,863.49C1183,863.49 1170.69,908.887 1176.33,943.825C1181.92,978.508 1139.76,987.644 1113.09,987.644C1086.42,987.644 1045.53,978.379 1049.75,943.66C1054.01,908.542 1043.18,863.49 1113.09,863.49Z" style="fill:rgb(237,188,139);"/>
                        </g>
                    </g>
                </g>
                <g transform="matrix(1,0,0,1,2145.19,976.692)">
                    <g transform="matrix(0.680369,-0.150748,0.0729064,0.657154,-577.003,25.99)">
                        <path d="M1034.64,1178.84C1045.3,1184.19 1047.84,1190.31 1047.71,1203.72C1047.58,1217.53 1044.66,1222.57 1035.05,1224.81C1027,1226.69 1008.19,1219.15 1007.04,1201.46C1005.77,1181.84 1023.8,1173.39 1034.64,1178.84Z" style="fill:rgb(255,222,189);"/>
                    </g>
                    <g transform="matrix(-0.680369,-0.150748,-0.0729064,0.657154,1147.25,25.99)">
                        <path d="M1034.64,1178.84C1045.3,1184.19 1047.84,1190.31 1047.71,1203.72C1047.58,1217.53 1044.66,1222.57 1035.05,1224.81C1027,1226.69 1008.19,1219.15 1007.04,1201.46C1005.77,1181.84 1023.8,1173.39 1034.64,1178.84Z" style="fill:rgb(255,222,189);"/>
                    </g>
                </g>
                <g transform="matrix(1.17965,0,0,1.27613,1117.2,436.271)">
                    <path d="M1098.33,872.045C1168.24,872.045 1170.69,908.887 1176.33,943.825C1181.92,978.508 1139.76,987.644 1113.09,987.644C1086.42,987.644 1045.53,978.379 1049.75,943.66C1054.01,908.542 1028.42,872.045 1098.33,872.045Z" style="fill:rgb(237,188,139);"/>
                </g>
                <g transform="matrix(1.17965,0,0,1.19201,1117.2,508.916)">
                    <path d="M1100.91,873.517C1170.82,873.517 1170.69,908.887 1176.33,943.825C1181.92,978.508 1139.76,987.644 1113.09,987.644C1086.42,987.644 1045.53,978.379 1049.75,943.66C1054.01,908.542 1031,873.517 1100.91,873.517Z" style="fill:rgb(255,213,170);"/>
                </g>
                <g transform="matrix(1,0,0,1.20511,1464.5,860.556)">
                    <path d="M905.715,581.795C896.899,607.676 899.857,708.153 915.796,719.943C893.11,718.537 879.788,595.48 887.346,587.504C893.808,580.686 905.715,581.795 905.715,581.795Z" style="fill:rgb(104,70,63);"/>
                </g>
                <g transform="matrix(0.991924,0,0,1,2143.74,976.692)">
                    <g>
                        <path d="M278.764,740.646L299.537,740.646C299.537,740.646 339.465,744.613 341.473,788.214C343.001,821.382 232.395,822.414 235.003,789.313C238.489,745.075 278.764,740.646 278.764,740.646Z" style="fill:rgb(158,209,133);"/>
                        <clipPath id="_clip3">
                            <path d="M278.764,740.646L299.537,740.646C299.537,740.646 339.465,744.613 341.473,788.214C343.001,821.382 232.395,822.414 235.003,789.313C238.489,745.075 278.764,740.646 278.764,740.646Z"/>
                        </clipPath>
                        <g clip-path="url(#_clip3)">
                            <path d="M375.436,714.225L285.134,716.23C289.344,751.968 295.563,782.49 291.058,811.182L375.436,856.999L375.436,714.225Z" style="fill:rgb(140,185,118);fill-opacity:0.670588;"/>
                            <g transform="matrix(0.941638,0,0,1.07593,-315.62,-64.2647)">
                                <ellipse cx="641.702" cy="744.517" rx="28.184" ry="13.782" style="fill:rgb(255,222,189);"/>
                            </g>
                        </g>
                    </g>
                </g>
                <g transform="matrix(0.537633,0.0204831,-0.0349555,0.917498,1975.06,1008.46)">
                    <path d="M925.578,563.638C916.017,566.408 1018.54,585.803 1014.61,726.075C1078.09,621.801 1024.34,509.265 925.578,563.638Z" style="fill:rgb(104,70,63);"/>
                </g>
                <path d="M2360.3,1595.18L2505.23,1567.49C2505.23,1567.49 2431.25,1519.04 2365.07,1548.77C2339.82,1560.11 2360.3,1595.18 2360.3,1595.18Z" style="fill:rgb(104,70,63);"/>
            </g>
        </g>
    </g>
</svg>
