<?xml version="1.0" encoding="UTF-8" standalone="no"?>
<!DOCTYPE svg PUBLIC "-//W3C//DTD SVG 1.1//EN" "http://www.w3.org/Graphics/SVG/1.1/DTD/svg11.dtd">
<svg width="100%" height="100%" viewBox="0 0 500 500" version="1.1" xmlns="http://www.w3.org/2000/svg" xmlns:xlink="http://www.w3.org/1999/xlink" xml:space="preserve" xmlns:serif="http://www.serif.com/" style="fill-rule:evenodd;clip-rule:evenodd;stroke-linejoin:round;stroke-miterlimit:1.41421;">
    <g id="Random" transform="matrix(1.51285,0,0,1.51285,-318.662,-2048.06)">
        <g transform="matrix(0.56139,0,1.60057e-17,0.56139,-42.8395,815.899)">
            <g id="Icon">
                <path d="M582.698,1067.6C606.121,1054.08 632.692,1046.96 659.739,1046.96C686.786,1046.96 713.356,1054.08 736.78,1067.6C760.203,1081.12 779.654,1100.57 793.177,1124C806.701,1147.42 813.821,1173.99 813.821,1201.04C813.821,1228.09 806.701,1254.66 793.177,1278.08C779.654,1301.5 760.203,1320.95 736.78,1334.48C713.356,1348 686.786,1355.12 659.739,1355.12C632.692,1355.12 606.121,1348 582.698,1334.48C559.274,1320.95 539.823,1301.5 526.3,1278.08C512.776,1254.66 505.657,1228.09 505.657,1201.04C505.657,1173.99 512.776,1147.42 526.3,1124C539.823,1100.57 559.274,1081.12 582.698,1067.6Z" style="fill:none;"/>
                <clipPath id="_clip2">
                    <path d="M582.698,1067.6C606.121,1054.08 632.692,1046.96 659.739,1046.96C686.786,1046.96 713.356,1054.08 736.78,1067.6C760.203,1081.12 779.654,1100.57 793.177,1124C806.701,1147.42 813.821,1173.99 813.821,1201.04C813.821,1228.09 806.701,1254.66 793.177,1278.08C779.654,1301.5 760.203,1320.95 736.78,1334.48C713.356,1348 686.786,1355.12 659.739,1355.12C632.692,1355.12 606.121,1348 582.698,1334.48C559.274,1320.95 539.823,1301.5 526.3,1278.08C512.776,1254.66 505.657,1228.09 505.657,1201.04C505.657,1173.99 512.776,1147.42 526.3,1124C539.823,1100.57 559.274,1081.12 582.698,1067.6Z"/>
                </clipPath>
                <g clip-path="url(#_clip2)">
                    <g transform="matrix(1.00397,0.217282,-0.217282,1.00397,185.784,-147.078)">
                        <g transform="matrix(0.866504,0.866504,0.745349,-0.745349,-686.909,1284.16)">
                            <path d="M759.467,1015.18L843.662,1185.56L675.894,1185.36L759.467,1015.18Z" style="fill:rgb(238,157,51);"/>
                        </g>
                        <g transform="matrix(1.18367,-0.317163,-0.272817,-1.01817,105.839,2461.74)">
                            <path d="M759.824,1016.69L844.351,1183.59L675.894,1185.36L759.824,1016.69Z" style="fill:rgb(233,72,83);"/>
                        </g>
                        <g transform="matrix(0.317163,-1.18367,-1.01817,-0.272817,1522.02,2363.99)">
                            <path d="M761.147,1017.08L844.668,1185.22L669.09,1188.22L761.147,1017.08Z" style="fill:rgb(240,113,189);"/>
                        </g>
                        <g transform="matrix(-0.866504,-0.866504,-0.745349,0.745349,2145.46,1088.66)">
                            <path d="M762.077,1015.95L844.089,1191.89L675.894,1185.36L762.077,1015.95Z" style="fill:rgb(61,139,212);"/>
                        </g>
                        <g transform="matrix(-1.18367,0.317163,0.272817,1.01817,1352.71,-88.9184)">
                            <path d="M761.727,1014.44L845.66,1185.36L672.247,1186.59L761.727,1014.44Z" style="fill:rgb(62,193,116);"/>
                        </g>
                        <g transform="matrix(-0.317163,1.18367,1.01817,0.272817,-63.473,8.83404)">
                            <path d="M760.409,1014.05L844.142,1189.24L674.246,1184.98L760.409,1014.05Z" style="fill:rgb(255,231,98);"/>
                        </g>
                    </g>
                    <g transform="matrix(-0.992211,-0.265862,0.265862,-0.992211,1064.77,2574.6)">
                        <g transform="matrix(0.866504,0.866504,0.745349,-0.745349,-686.909,1284.16)">
                            <path d="M759.467,1015.18L843.662,1185.56L675.894,1185.36L759.467,1015.18Z" style="fill:rgb(227,166,85);"/>
                        </g>
                        <g transform="matrix(1.18367,-0.317163,-0.272817,-1.01817,105.839,2461.74)">
                            <path d="M759.824,1016.69L844.351,1183.59L675.894,1185.36L759.824,1016.69Z" style="fill:rgb(241,122,130);"/>
                        </g>
                        <g transform="matrix(0.317163,-1.18367,-1.01817,-0.272817,1522.02,2363.99)">
                            <path d="M761.147,1017.08L844.668,1185.22L669.09,1188.22L761.147,1017.08Z" style="fill:rgb(242,133,198);"/>
                        </g>
                        <g transform="matrix(-0.866504,-0.866504,-0.745349,0.745349,2145.46,1088.66)">
                            <path d="M762.077,1015.95L844.089,1191.89L675.894,1185.36L762.077,1015.95Z" style="fill:rgb(135,189,240);"/>
                        </g>
                        <g transform="matrix(-1.18367,0.317163,0.272817,1.01817,1352.71,-88.9184)">
                            <path d="M761.727,1014.44L845.66,1185.36L672.247,1186.59L761.727,1014.44Z" style="fill:rgb(91,201,136);"/>
                        </g>
                        <g transform="matrix(-0.317163,1.18367,1.01817,0.272817,-63.473,8.83404)">
                            <path d="M760.409,1014.05L844.142,1189.24L674.246,1184.98L760.409,1014.05Z" style="fill:rgb(234,223,129);"/>
                        </g>
                    </g>
                    <g transform="matrix(2.43896,0,-6.95368e-17,2.43896,-139.171,-2244.05)">
                        <g transform="matrix(0.858739,0,0,0.744193,-625.201,296.541)">
                            <circle cx="1109.49" cy="1497.54" r="46.55" style="fill:white;"/>
                        </g>
                        <g transform="matrix(-0.980586,1.07547,1.07547,0.980586,271.713,443.441)">
                            <path d="M473.018,489.169C470.451,489.72 476.259,480.774 482.579,485.599C483.032,492.589 489.148,497.151 489.148,497.151C489.148,497.151 480.881,497.578 473.018,489.169Z" style="fill:white;"/>
                        </g>
                        <g transform="matrix(0.7901,0,0,0.7901,-574.309,217.018)">
                            <text x="1127.57px" y="1534.05px" style="font-family:'RobotoCondensed-Bold', 'Roboto Condensed';font-weight:700;font-size:64px;fill:rgb(56,68,86);">?</text>
                        </g>
                    </g>
                </g>
            </g>
        </g>
    </g>
    <defs>
        <linearGradient id="_Linear1" x1="0" y1="0" x2="1" y2="0" gradientUnits="userSpaceOnUse" gradientTransform="matrix(42.6825,-8.82974,-3.13265,54.3074,353.15,562.252)"><stop offset="0" style="stop-color:black;stop-opacity:0.192157"/><stop offset="1" style="stop-color:black;stop-opacity:0"/></linearGradient>
    </defs>
</svg>
