<?xml version="1.0" encoding="UTF-8" standalone="no"?>
<!DOCTYPE svg PUBLIC "-//W3C//DTD SVG 1.1//EN" "http://www.w3.org/Graphics/SVG/1.1/DTD/svg11.dtd">
<svg width="100%" height="100%" viewBox="0 0 500 500" version="1.1" xmlns="http://www.w3.org/2000/svg" xmlns:xlink="http://www.w3.org/1999/xlink" xml:space="preserve" xmlns:serif="http://www.serif.com/" style="fill-rule:evenodd;clip-rule:evenodd;stroke-linejoin:round;stroke-miterlimit:1.41421;">
    <g id="Movies" transform="matrix(1.51285,0,0,1.51285,-1547.44,-1421.8)">
        <g id="Shadow" transform="matrix(0.991052,0.703265,-0.47754,1.18627,1128.89,145.324)">
            <path d="M420.535,680.513C442.628,628.322 451.366,575.715 442.952,522.575L296.267,522.575L286.939,680.513L420.535,680.513Z" style="fill:url(#_Linear1);"/>
        </g>
        <g id="Icon" transform="matrix(1.14708,0,0,1.14708,-136.998,-48.4156)">
            <path d="M1090.27,886.002C1092.95,882.761 1097.06,880.684 1101.67,880.684C1107.4,880.684 1112.37,883.897 1114.76,888.567C1114.83,888.566 1114.89,888.565 1114.96,888.565C1118.54,888.565 1121.82,889.818 1124.37,891.895C1126.92,889.769 1130.24,888.484 1133.86,888.484C1141.92,888.484 1148.46,894.827 1148.46,902.64C1148.46,902.822 1148.46,903.002 1148.45,903.181C1157.94,908.037 1164.42,917.705 1164.42,928.828C1164.42,944.019 1152.34,956.494 1137,957.706C1130.83,969.268 1120.27,976.894 1108.3,976.894C1098.34,976.894 1089.37,971.624 1083.08,963.205C1064.34,962.766 1049.28,949.52 1049.28,933.267C1049.28,923.561 1054.65,914.927 1062.97,909.453C1062.96,909.138 1062.95,908.822 1062.95,908.504C1062.95,895.766 1072.96,885.425 1085.29,885.425C1087,885.425 1088.67,885.624 1090.27,886.002Z" style="fill:rgb(250,189,103);"/>
            <clipPath id="_clip2">
                <path d="M1090.27,886.002C1092.95,882.761 1097.06,880.684 1101.67,880.684C1107.4,880.684 1112.37,883.897 1114.76,888.567C1114.83,888.566 1114.89,888.565 1114.96,888.565C1118.54,888.565 1121.82,889.818 1124.37,891.895C1126.92,889.769 1130.24,888.484 1133.86,888.484C1141.92,888.484 1148.46,894.827 1148.46,902.64C1148.46,902.822 1148.46,903.002 1148.45,903.181C1157.94,908.037 1164.42,917.705 1164.42,928.828C1164.42,944.019 1152.34,956.494 1137,957.706C1130.83,969.268 1120.27,976.894 1108.3,976.894C1098.34,976.894 1089.37,971.624 1083.08,963.205C1064.34,962.766 1049.28,949.52 1049.28,933.267C1049.28,923.561 1054.65,914.927 1062.97,909.453C1062.96,909.138 1062.95,908.822 1062.95,908.504C1062.95,895.766 1072.96,885.425 1085.29,885.425C1087,885.425 1088.67,885.624 1090.27,886.002Z"/>
            </clipPath>
            <g clip-path="url(#_clip2)">
                <g transform="matrix(0.655382,0,0,0.655382,391.646,333.801)">
                    <circle cx="1049.25" cy="867.768" r="10.483" style="fill:rgb(255,209,144);"/>
                    <circle cx="1083.82" cy="856.997" r="5.634" style="fill:rgb(255,209,144);"/>
                    <g transform="matrix(1.1368,0,0,1.05189,-145.581,-41.0617)">
                        <circle cx="1109.32" cy="879.438" r="12.718" style="fill:rgb(255,209,144);"/>
                    </g>
                    <g transform="matrix(1.1368,0,0,1.05189,-145.676,-25.235)">
                        <circle cx="1109.32" cy="879.438" r="12.718" style="fill:rgb(255,209,144);"/>
                    </g>
                    <g transform="matrix(1.27943,0.753613,-0.632161,1.07323,231.491,-919.663)">
                        <circle cx="1135.84" cy="863.798" r="6.038" style="fill:rgb(255,209,144);"/>
                    </g>
                    <g transform="matrix(1,0,0,1,0.926929,6.56741)">
                        <circle cx="1147.4" cy="891.45" r="16.061" style="fill:rgb(255,209,144);"/>
                    </g>
                    <g transform="matrix(0.595972,0,0,0.595972,447.86,370.507)">
                        <circle cx="1147.4" cy="891.45" r="16.061" style="fill:rgb(255,209,144);"/>
                    </g>
                    <g transform="matrix(0.963279,0,0,0.963279,37.2845,37.2843)">
                        <circle cx="1091.43" cy="884.534" r="8.156" style="fill:rgb(255,209,144);"/>
                    </g>
                    <g transform="matrix(0.76005,0,0,0.76005,276.236,217.127)">
                        <circle cx="1128.37" cy="881.792" r="11.912" style="fill:rgb(255,209,144);"/>
                    </g>
                    <g transform="matrix(0.666872,0,0,0.666872,346.867,294.981)">
                        <circle cx="1128.37" cy="881.792" r="11.912" style="fill:rgb(255,209,144);"/>
                    </g>
                    <g transform="matrix(0.665777,0,0,0.665777,348.231,308.297)">
                        <circle cx="1128.37" cy="881.792" r="11.912" style="fill:rgb(255,209,144);"/>
                    </g>
                    <g transform="matrix(1,0,0,1,-1.0595,-0.63654)">
                        <circle cx="1129.48" cy="859.979" r="5.183" style="fill:rgb(255,209,144);"/>
                    </g>
                    <circle cx="1083.33" cy="857.631" r="15.534" style="fill:rgb(255,209,144);"/>
                    <g transform="matrix(1.32776,0,0,1.32776,-348.706,-285.451)">
                        <circle cx="1063.9" cy="870.911" r="11.047" style="fill:rgb(255,209,144);"/>
                    </g>
                    <g transform="matrix(1.45632,0,0,1.45632,-470.605,-410.023)">
                        <circle cx="1035.97" cy="896.302" r="4.355" style="fill:rgb(255,209,144);"/>
                    </g>
                    <g transform="matrix(1.1358,0,0,1.1358,-143.185,-118.031)">
                        <circle cx="1050.57" cy="897.373" r="13.012" style="fill:rgb(255,209,144);"/>
                    </g>
                    <circle cx="1066.53" cy="903.118" r="9.419" style="fill:rgb(255,209,144);"/>
                    <circle cx="1031.4" cy="904.905" r="9.598" style="fill:rgb(255,209,144);"/>
                </g>
                <g transform="matrix(0.671135,0,0,0.823855,360.974,47.9788)">
                    <rect x="1107.51" y="977.879" width="111.673" height="134.051" style="fill:rgb(247,152,19);fill-opacity:0.396078;"/>
                </g>
            </g>
            <g transform="matrix(0.668374,0,0,0.668374,353.003,328.414)">
                <path d="M1212.41,911.63L1042.18,911.63L1052.65,1046.01C1052.65,1066.61 1069.38,1083.33 1089.97,1083.33L1164.62,1083.33C1185.21,1083.33 1201.94,1066.61 1201.94,1046.01L1212.41,911.63Z" style="fill:rgb(210,55,96);"/>
                <clipPath id="_clip3">
                    <path d="M1212.41,911.63L1042.18,911.63L1052.65,1046.01C1052.65,1066.61 1069.38,1083.33 1089.97,1083.33L1164.62,1083.33C1185.21,1083.33 1201.94,1066.61 1201.94,1046.01L1212.41,911.63Z"/>
                </clipPath>
                <g clip-path="url(#_clip3)">
                    <g transform="matrix(0.796357,0,0,0.904089,223.863,95.8026)">
                        <rect x="1068.79" y="894.598" width="43.115" height="202.784" style="fill:rgb(235,239,243);"/>
                    </g>
                    <g transform="matrix(0.796357,0,0,0.904089,290.984,95.8026)">
                        <rect x="1068.79" y="894.598" width="43.115" height="202.784" style="fill:rgb(228,218,221);"/>
                    </g>
                    <g transform="matrix(1.00413,0,0,1.45288,11.9258,-511.878)">
                        <rect x="1107.51" y="977.879" width="111.673" height="134.051" style="fill-opacity:0.180392;"/>
                    </g>
                </g>
            </g>
            <g transform="matrix(0.557407,0,0,0.353622,500.329,619.648)">
                <path d="M1203.59,906.773C1203.59,900.681 1200.45,895.735 1196.58,895.735L978.218,895.735C974.353,895.735 971.216,900.681 971.216,906.773L971.216,938.618C971.216,944.71 974.353,949.656 978.218,949.656L1196.58,949.656C1200.45,949.656 1203.59,944.71 1203.59,938.618L1203.59,906.773Z" style="fill:white;"/>
                <clipPath id="_clip4">
                    <path d="M1203.59,906.773C1203.59,900.681 1200.45,895.735 1196.58,895.735L978.218,895.735C974.353,895.735 971.216,900.681 971.216,906.773L971.216,938.618C971.216,944.71 974.353,949.656 978.218,949.656L1196.58,949.656C1200.45,949.656 1203.59,944.71 1203.59,938.618L1203.59,906.773Z"/>
                </clipPath>
                <g clip-path="url(#_clip4)">
                    <g transform="matrix(1.20403,0,0,0.999254,-250.006,-137.179)">
                        <rect x="1107.51" y="977.879" width="111.673" height="134.051" style="fill-opacity:0.180392;"/>
                    </g>
                </g>
            </g>
        </g>
    </g>
    <defs>
        <linearGradient id="_Linear1" x1="0" y1="0" x2="1" y2="0" gradientUnits="userSpaceOnUse" gradientTransform="matrix(65.6065,-4.33333,-10.9807,63.0644,352.736,590.924)"><stop offset="0" style="stop-color:black;stop-opacity:0.192157"/><stop offset="1" style="stop-color:black;stop-opacity:0"/></linearGradient>
    </defs>
</svg>
