<?xml version="1.0" encoding="UTF-8" standalone="no"?>
<!DOCTYPE svg PUBLIC "-//W3C//DTD SVG 1.1//EN" "http://www.w3.org/Graphics/SVG/1.1/DTD/svg11.dtd">
<svg width="100%" height="100%" viewBox="0 0 500 500" version="1.1" xmlns="http://www.w3.org/2000/svg" xmlns:xlink="http://www.w3.org/1999/xlink" xml:space="preserve" xmlns:serif="http://www.serif.com/" style="fill-rule:evenodd;clip-rule:evenodd;stroke-linejoin:round;stroke-miterlimit:1.41421;">
    <g id="Science" transform="matrix(1.51285,0,0,1.51285,-325.98,-1437.89)">
        <g id="Shadow" transform="matrix(1.08018,0.76704,-0.452045,1.00015,280.567,228.46)">
            <path d="M433.79,692.99C454.645,633.819 460.113,576.546 435.685,522.96L296.267,522.575L270.09,698.678L433.79,692.99Z" style="fill:url(#_Linear1);"/>
        </g>
        <g transform="matrix(0.887419,0,0,0.887419,41.029,189.217)">
            <g id="Icon">
                <path d="M359.529,887.853C364.616,887.853 368.745,891.982 368.745,897.069C368.745,902.155 364.616,906.284 359.529,906.284L354.724,906.284L354.724,955.621L408.438,1027.06C414.584,1035.23 415.581,1046.18 411.013,1055.33C406.445,1064.48 397.097,1070.26 386.87,1070.26C348.437,1070.26 297.025,1070.26 258.592,1070.26C248.365,1070.26 239.017,1064.48 234.449,1055.33C229.881,1046.18 230.878,1035.23 237.024,1027.06L290.738,955.621L290.738,906.284L285.933,906.284C280.847,906.284 276.717,902.155 276.717,897.069C276.717,891.982 280.847,887.853 285.933,887.853L359.529,887.853Z" style="fill:rgb(235,239,243);"/>
                <clipPath id="_clip2">
                    <path d="M359.529,887.853C364.616,887.853 368.745,891.982 368.745,897.069C368.745,902.155 364.616,906.284 359.529,906.284L354.724,906.284L354.724,955.621L408.438,1027.06C414.584,1035.23 415.581,1046.18 411.013,1055.33C406.445,1064.48 397.097,1070.26 386.87,1070.26C348.437,1070.26 297.025,1070.26 258.592,1070.26C248.365,1070.26 239.017,1064.48 234.449,1055.33C229.881,1046.18 230.878,1035.23 237.024,1027.06L290.738,955.621L290.738,906.284L285.933,906.284C280.847,906.284 276.717,902.155 276.717,897.069C276.717,891.982 280.847,887.853 285.933,887.853L359.529,887.853Z"/>
                </clipPath>
                <g clip-path="url(#_clip2)">
                    <g transform="matrix(2.24871,0,0,2.24871,-407.636,-2461.36)">
                        <path d="M343.073,1532.7L358.9,1553.75C360.631,1556.06 360.912,1559.14 359.625,1561.72C358.339,1564.29 355.706,1565.92 352.825,1565.92C337.051,1565.92 312.539,1565.92 296.764,1565.92C293.884,1565.92 291.251,1564.29 289.964,1561.72C288.678,1559.14 288.959,1556.06 290.69,1553.75L306.516,1532.7L343.073,1532.7Z" style="fill:rgb(3,189,91);"/>
                    </g>
                    <g transform="matrix(1,0,0,1,1.0096,13.3789)">
                        <circle cx="292.794" cy="1002.13" r="16.604" style="fill:white;"/>
                    </g>
                    <g transform="matrix(1,0,0,1,-4.27945,9.25918)">
                        <circle cx="364.46" cy="1022.16" r="6.18" style="fill:white;"/>
                    </g>
                    <g transform="matrix(1,0,0,0.67987,2.84044,304.378)">
                        <rect x="319.436" y="823.727" width="107.887" height="318.475" style="fill:rgb(43,51,63);fill-opacity:0.266667;"/>
                    </g>
                </g>
            </g>
        </g>
    </g>
    <defs>
        <linearGradient id="_Linear1" x1="0" y1="0" x2="1" y2="0" gradientUnits="userSpaceOnUse" gradientTransform="matrix(86.6634,-6.59579,-11.367,105.297,334.897,592.42)"><stop offset="0" style="stop-color:black;stop-opacity:0.192157"/><stop offset="1" style="stop-color:black;stop-opacity:0"/></linearGradient>
    </defs>
</svg>
